<svg width="1155" height="67" viewBox="0 0 1155 67" fill="none" xmlns="http://www.w3.org/2000/svg">
<path d="M1142.73 22.6486C1143.63 22.6424 1144.08 23.7296 1143.44 24.3601L1134.98 32.7148C1134.62 33.0724 1134.58 33.6449 1134.9 34.0448L1141.64 42.606C1142.16 43.2735 1141.67 44.2507 1140.82 44.224L1128.53 43.8374C1128.08 43.8234 1127.68 44.104 1127.55 44.5263L1123.9 55.6941C1123.64 56.4733 1122.61 56.6319 1122.13 55.9652L1115.67 46.9249C1115.39 46.5408 1114.89 46.4012 1114.45 46.5901L1103.14 51.5301C1102.33 51.8834 1101.49 51.0904 1101.8 50.2631L1105.74 39.7276C1105.93 39.2352 1105.7 38.6842 1105.22 38.4667L1094.98 33.8128C1094.17 33.4474 1094.2 32.295 1095.03 31.9718L1106.52 27.453C1106.96 27.2802 1107.22 26.8236 1107.14 26.3578L1105.31 15.3945C1105.18 14.5859 1106.02 13.9675 1106.75 14.3378L1117.23 19.646C1117.63 19.8467 1118.11 19.7619 1118.41 19.4379L1126.82 10.4681C1127.4 9.84843 1128.44 10.1896 1128.54 11.0331L1129.84 21.8505C1129.9 22.3558 1130.33 22.735 1130.84 22.7315L1142.73 22.6486Z" fill="#F4F9FF"/>
<path d="M16.2954 47.576C12.3274 47.576 9.09538 46.104 6.59938 43.16C4.10338 40.184 2.85538 36.168 2.85538 31.112C2.85538 26.088 4.10338 22.136 6.59938 19.256C9.09538 16.376 12.3274 14.936 16.2954 14.936C20.2634 14.936 23.4954 16.376 25.9914 19.256C28.5194 22.136 29.7834 26.088 29.7834 31.112C29.7834 36.168 28.5194 40.184 25.9914 43.16C23.4954 46.104 20.2634 47.576 16.2954 47.576ZM16.2954 44.072C19.1114 44.072 21.3674 42.904 23.0634 40.568C24.7594 38.2 25.6074 35.048 25.6074 31.112C25.6074 27.208 24.7594 24.12 23.0634 21.848C21.3674 19.576 19.1114 18.44 16.2954 18.44C13.4794 18.44 11.2234 19.576 9.52738 21.848C7.83138 24.12 6.98338 27.208 6.98338 31.112C6.98338 35.048 7.83138 38.2 9.52738 40.568C11.2234 42.904 13.4794 44.072 16.2954 44.072ZM41.9105 47V18.872H32.4065V15.512H55.4465V18.872H45.9425V47H41.9105ZM61.1169 47V15.512H65.1009V28.712H79.7409V15.512H83.7729V47H79.7409V32.168H65.1009V47H61.1169ZM92.4294 47V15.512H110.573V18.872H96.4134V28.76H108.365V32.168H96.4134V43.592H111.053V47H92.4294ZM121.726 30.44H127.006C132.094 30.44 134.638 28.408 134.638 24.344C134.638 22.296 133.982 20.856 132.67 20.024C131.358 19.16 129.47 18.728 127.006 18.728H121.726V30.44ZM121.726 47H117.742V15.512H127.582C130.814 15.512 133.454 16.168 135.502 17.48C137.582 18.792 138.622 21.08 138.622 24.344C138.622 26.808 137.966 28.776 136.654 30.248C135.374 31.72 133.662 32.728 131.518 33.272L139.534 47H135.022L127.438 33.704H121.726V47ZM160.103 29.384L158.615 34.184H168.071L166.583 29.384C166.007 27.624 165.463 25.88 164.951 24.152C164.439 22.392 163.927 20.6 163.415 18.776H163.223C162.743 20.6 162.247 22.392 161.735 24.152C161.223 25.88 160.679 27.624 160.103 29.384ZM172.055 47L169.079 37.4H157.607L154.583 47H150.503L161.159 15.512H165.671L176.327 47H172.055ZM189.525 47.576C187.317 47.576 185.269 47.16 183.381 46.328C181.493 45.464 179.861 44.328 178.485 42.92L180.885 40.136C182.005 41.32 183.317 42.28 184.821 43.016C186.357 43.72 187.941 44.072 189.573 44.072C191.653 44.072 193.269 43.608 194.421 42.68C195.573 41.72 196.149 40.472 196.149 38.936C196.149 37.336 195.653 36.184 194.661 35.48C193.669 34.744 192.421 34.04 190.917 33.368L186.405 31.4C184.901 30.792 183.461 29.864 182.085 28.616C180.709 27.368 180.021 25.592 180.021 23.288C180.021 20.888 180.949 18.904 182.805 17.336C184.693 15.736 187.061 14.936 189.909 14.936C191.765 14.936 193.493 15.304 195.093 16.04C196.725 16.744 198.101 17.672 199.221 18.824L197.061 21.416C196.101 20.488 195.029 19.768 193.845 19.256C192.693 18.712 191.381 18.44 189.909 18.44C188.149 18.44 186.725 18.856 185.637 19.688C184.581 20.52 184.053 21.64 184.053 23.048C184.053 24.552 184.613 25.672 185.733 26.408C186.853 27.144 188.037 27.768 189.285 28.28L193.749 30.2C195.573 31 197.109 32.024 198.357 33.272C199.605 34.488 200.229 36.264 200.229 38.6C200.229 41.096 199.269 43.224 197.349 44.984C195.461 46.712 192.853 47.576 189.525 47.576ZM206.429 47V15.512H215.405C218.925 15.512 221.773 16.2 223.949 17.576C226.125 18.92 227.213 21.32 227.213 24.776C227.213 28.072 226.141 30.52 223.997 32.12C221.853 33.72 219.053 34.52 215.597 34.52H210.413V47H206.429ZM210.413 31.256H215.117C220.525 31.256 223.229 29.096 223.229 24.776C223.229 22.504 222.525 20.936 221.117 20.072C219.741 19.176 217.677 18.728 214.925 18.728H210.413V31.256ZM233.617 47V15.512H251.761V18.872H237.601V28.76H249.553V32.168H237.601V43.592H252.241V47H233.617ZM270.833 47.576C266.897 47.576 263.617 46.136 260.993 43.256C258.401 40.376 257.105 36.376 257.105 31.256C257.105 26.2 258.433 22.216 261.089 19.304C263.745 16.392 267.073 14.936 271.073 14.936C272.993 14.936 274.673 15.336 276.113 16.136C277.585 16.904 278.785 17.8 279.713 18.824L277.553 21.416C276.721 20.52 275.777 19.8 274.721 19.256C273.665 18.712 272.465 18.44 271.121 18.44C268.145 18.44 265.745 19.592 263.921 21.896C262.129 24.168 261.233 27.256 261.233 31.16C261.233 35.128 262.113 38.28 263.873 40.616C265.633 42.92 268.001 44.072 270.977 44.072C272.481 44.072 273.825 43.768 275.009 43.16C276.193 42.52 277.281 41.64 278.273 40.52L280.481 43.016C279.233 44.456 277.825 45.576 276.257 46.376C274.689 47.176 272.881 47.576 270.833 47.576ZM292.036 47V18.872H282.532V15.512H305.572V18.872H296.068V47H292.036ZM318.103 47.576C315.895 47.576 313.847 47.16 311.959 46.328C310.071 45.464 308.439 44.328 307.063 42.92L309.463 40.136C310.583 41.32 311.895 42.28 313.399 43.016C314.935 43.72 316.519 44.072 318.151 44.072C320.231 44.072 321.847 43.608 322.999 42.68C324.151 41.72 324.727 40.472 324.727 38.936C324.727 37.336 324.231 36.184 323.239 35.48C322.247 34.744 320.999 34.04 319.495 33.368L314.983 31.4C313.479 30.792 312.039 29.864 310.663 28.616C309.287 27.368 308.599 25.592 308.599 23.288C308.599 20.888 309.527 18.904 311.383 17.336C313.271 15.736 315.639 14.936 318.487 14.936C320.343 14.936 322.071 15.304 323.671 16.04C325.303 16.744 326.679 17.672 327.799 18.824L325.639 21.416C324.679 20.488 323.607 19.768 322.423 19.256C321.271 18.712 319.959 18.44 318.487 18.44C316.727 18.44 315.303 18.856 314.215 19.688C313.159 20.52 312.631 21.64 312.631 23.048C312.631 24.552 313.191 25.672 314.311 26.408C315.431 27.144 316.615 27.768 317.863 28.28L322.327 30.2C324.151 31 325.687 32.024 326.935 33.272C328.183 34.488 328.807 36.264 328.807 38.6C328.807 41.096 327.847 43.224 325.927 44.984C324.039 46.712 321.431 47.576 318.103 47.576ZM356.233 47.576C352.265 47.576 349.033 46.104 346.537 43.16C344.041 40.184 342.793 36.168 342.793 31.112C342.793 26.088 344.041 22.136 346.537 19.256C349.033 16.376 352.265 14.936 356.233 14.936C360.201 14.936 363.433 16.376 365.929 19.256C368.457 22.136 369.721 26.088 369.721 31.112C369.721 36.168 368.457 40.184 365.929 43.16C363.433 46.104 360.201 47.576 356.233 47.576ZM356.233 44.072C359.049 44.072 361.305 42.904 363.001 40.568C364.697 38.2 365.545 35.048 365.545 31.112C365.545 27.208 364.697 24.12 363.001 21.848C361.305 19.576 359.049 18.44 356.233 18.44C353.417 18.44 351.161 19.576 349.465 21.848C347.769 24.12 346.921 27.208 346.921 31.112C346.921 35.048 347.769 38.2 349.465 40.568C351.161 42.904 353.417 44.072 356.233 44.072ZM376.492 47V15.512H394.636V18.872H380.476V29.528H392.476V32.888H380.476V47H376.492ZM409.82 47V15.512H414.62L420.668 32.312C421.052 33.4 421.42 34.504 421.772 35.624C422.156 36.712 422.54 37.8 422.924 38.888H423.116C423.5 37.8 423.852 36.712 424.172 35.624C424.524 34.504 424.892 33.4 425.276 32.312L431.228 15.512H436.076V47H432.332V29.672C432.332 28.296 432.396 26.744 432.524 25.016C432.652 23.288 432.764 21.736 432.86 20.36H432.668L430.172 27.512L424.22 43.832H421.58L415.628 27.512L413.132 20.36H412.94C413.036 21.736 413.132 23.288 413.228 25.016C413.356 26.744 413.42 28.296 413.42 29.672V47H409.82ZM449.783 47V34.808L440.327 15.512H444.599L448.679 24.392C449.191 25.544 449.687 26.68 450.167 27.8C450.679 28.92 451.191 30.072 451.703 31.256H451.895C452.439 30.072 452.983 28.92 453.527 27.8C454.071 26.68 454.583 25.544 455.063 24.392L459.095 15.512H463.271L453.815 34.808V47H449.783ZM477.133 47V15.512H486.109C489.629 15.512 492.477 16.2 494.653 17.576C496.829 18.92 497.917 21.32 497.917 24.776C497.917 28.072 496.845 30.52 494.701 32.12C492.557 33.72 489.757 34.52 486.301 34.52H481.117V47H477.133ZM481.117 31.256H485.821C491.229 31.256 493.933 29.096 493.933 24.776C493.933 22.504 493.229 20.936 491.821 20.072C490.445 19.176 488.381 18.728 485.629 18.728H481.117V31.256ZM508.304 30.44H513.584C518.672 30.44 521.216 28.408 521.216 24.344C521.216 22.296 520.56 20.856 519.248 20.024C517.936 19.16 516.048 18.728 513.584 18.728H508.304V30.44ZM508.304 47H504.32V15.512H514.16C517.392 15.512 520.032 16.168 522.08 17.48C524.16 18.792 525.2 21.08 525.2 24.344C525.2 26.808 524.544 28.776 523.232 30.248C521.952 31.72 520.24 32.728 518.096 33.272L526.112 47H521.6L514.016 33.704H508.304V47ZM543.264 47.576C539.296 47.576 536.064 46.104 533.568 43.16C531.072 40.184 529.824 36.168 529.824 31.112C529.824 26.088 531.072 22.136 533.568 19.256C536.064 16.376 539.296 14.936 543.264 14.936C547.232 14.936 550.464 16.376 552.96 19.256C555.488 22.136 556.752 26.088 556.752 31.112C556.752 36.168 555.488 40.184 552.96 43.16C550.464 46.104 547.232 47.576 543.264 47.576ZM543.264 44.072C546.08 44.072 548.336 42.904 550.032 40.568C551.728 38.2 552.576 35.048 552.576 31.112C552.576 27.208 551.728 24.12 550.032 21.848C548.336 19.576 546.08 18.44 543.264 18.44C540.448 18.44 538.192 19.576 536.496 21.848C534.8 24.12 533.952 27.208 533.952 31.112C533.952 35.048 534.8 38.2 536.496 40.568C538.192 42.904 540.448 44.072 543.264 44.072ZM563.523 47V15.512H581.667V18.872H567.507V29.528H579.507V32.888H567.507V47H563.523ZM587.242 47V15.512H605.386V18.872H591.226V28.76H603.178V32.168H591.226V43.592H605.866V47H587.242ZM621.29 47.576C619.082 47.576 617.034 47.16 615.146 46.328C613.258 45.464 611.626 44.328 610.25 42.92L612.65 40.136C613.77 41.32 615.082 42.28 616.586 43.016C618.122 43.72 619.706 44.072 621.338 44.072C623.418 44.072 625.034 43.608 626.186 42.68C627.338 41.72 627.914 40.472 627.914 38.936C627.914 37.336 627.418 36.184 626.426 35.48C625.434 34.744 624.186 34.04 622.682 33.368L618.17 31.4C616.666 30.792 615.226 29.864 613.85 28.616C612.474 27.368 611.786 25.592 611.786 23.288C611.786 20.888 612.714 18.904 614.57 17.336C616.458 15.736 618.826 14.936 621.674 14.936C623.53 14.936 625.258 15.304 626.858 16.04C628.49 16.744 629.866 17.672 630.986 18.824L628.826 21.416C627.866 20.488 626.794 19.768 625.61 19.256C624.458 18.712 623.146 18.44 621.674 18.44C619.914 18.44 618.49 18.856 617.402 19.688C616.346 20.52 615.818 21.64 615.818 23.048C615.818 24.552 616.378 25.672 617.498 26.408C618.618 27.144 619.802 27.768 621.05 28.28L625.514 30.2C627.338 31 628.874 32.024 630.122 33.272C631.37 34.488 631.994 36.264 631.994 38.6C631.994 41.096 631.034 43.224 629.114 44.984C627.226 46.712 624.618 47.576 621.29 47.576ZM646.275 47.576C644.067 47.576 642.019 47.16 640.131 46.328C638.243 45.464 636.611 44.328 635.235 42.92L637.635 40.136C638.755 41.32 640.067 42.28 641.571 43.016C643.107 43.72 644.691 44.072 646.323 44.072C648.403 44.072 650.019 43.608 651.171 42.68C652.323 41.72 652.899 40.472 652.899 38.936C652.899 37.336 652.403 36.184 651.411 35.48C650.419 34.744 649.171 34.04 647.667 33.368L643.155 31.4C641.651 30.792 640.211 29.864 638.835 28.616C637.459 27.368 636.771 25.592 636.771 23.288C636.771 20.888 637.699 18.904 639.555 17.336C641.443 15.736 643.811 14.936 646.659 14.936C648.515 14.936 650.243 15.304 651.843 16.04C653.475 16.744 654.851 17.672 655.971 18.824L653.811 21.416C652.851 20.488 651.779 19.768 650.595 19.256C649.443 18.712 648.131 18.44 646.659 18.44C644.899 18.44 643.475 18.856 642.387 19.688C641.331 20.52 640.803 21.64 640.803 23.048C640.803 24.552 641.363 25.672 642.483 26.408C643.603 27.144 644.787 27.768 646.035 28.28L650.499 30.2C652.323 31 653.859 32.024 655.107 33.272C656.355 34.488 656.979 36.264 656.979 38.6C656.979 41.096 656.019 43.224 654.099 44.984C652.211 46.712 649.603 47.576 646.275 47.576ZM663.179 47V15.512H667.163V47H663.179ZM687.405 47.576C683.437 47.576 680.205 46.104 677.709 43.16C675.213 40.184 673.965 36.168 673.965 31.112C673.965 26.088 675.213 22.136 677.709 19.256C680.205 16.376 683.437 14.936 687.405 14.936C691.373 14.936 694.605 16.376 697.101 19.256C699.629 22.136 700.893 26.088 700.893 31.112C700.893 36.168 699.629 40.184 697.101 43.16C694.605 46.104 691.373 47.576 687.405 47.576ZM687.405 44.072C690.221 44.072 692.477 42.904 694.173 40.568C695.869 38.2 696.717 35.048 696.717 31.112C696.717 27.208 695.869 24.12 694.173 21.848C692.477 19.576 690.221 18.44 687.405 18.44C684.589 18.44 682.333 19.576 680.637 21.848C678.941 24.12 678.093 27.208 678.093 31.112C678.093 35.048 678.941 38.2 680.637 40.568C682.333 42.904 684.589 44.072 687.405 44.072ZM707.664 47V15.512H711.792L723.168 35.288L726.576 41.816H726.768C726.672 40.216 726.56 38.568 726.432 36.872C726.336 35.144 726.288 33.448 726.288 31.784V15.512H730.08V47H725.952L714.528 27.176L711.12 20.696H710.928C711.056 22.296 711.168 23.928 711.264 25.592C711.392 27.224 711.456 28.872 711.456 30.536V47H707.664ZM744.166 29.384L742.678 34.184H752.134L750.646 29.384C750.07 27.624 749.526 25.88 749.014 24.152C748.502 22.392 747.99 20.6 747.478 18.776H747.286C746.806 20.6 746.31 22.392 745.798 24.152C745.286 25.88 744.742 27.624 744.166 29.384ZM756.118 47L753.142 37.4H741.67L738.646 47H734.566L745.222 15.512H749.734L760.39 47H756.118ZM764.851 47V15.512H768.835V43.592H782.611V47H764.851ZM797.804 47V15.512H807.164C810.364 15.512 812.956 16.104 814.94 17.288C816.956 18.472 817.964 20.44 817.964 23.192C817.964 24.76 817.564 26.184 816.764 27.464C815.964 28.712 814.828 29.576 813.356 30.056V30.248C815.244 30.6 816.78 31.4 817.964 32.648C819.18 33.896 819.788 35.608 819.788 37.784C819.788 40.888 818.668 43.208 816.428 44.744C814.22 46.248 811.356 47 807.836 47H797.804ZM801.788 28.904H806.444C809.132 28.904 811.068 28.44 812.252 27.512C813.436 26.584 814.028 25.32 814.028 23.72C814.028 21.896 813.404 20.6 812.156 19.832C810.908 19.064 809.068 18.68 806.636 18.68H801.788V28.904ZM801.788 43.832H807.26C809.98 43.832 812.092 43.336 813.596 42.344C815.1 41.32 815.852 39.752 815.852 37.64C815.852 35.688 815.1 34.264 813.596 33.368C812.124 32.44 810.012 31.976 807.26 31.976H801.788V43.832ZM831.447 29.384L829.959 34.184H839.415L837.927 29.384C837.351 27.624 836.807 25.88 836.295 24.152C835.783 22.392 835.271 20.6 834.759 18.776H834.567C834.087 20.6 833.591 22.392 833.079 24.152C832.567 25.88 832.023 27.624 831.447 29.384ZM843.399 47L840.423 37.4H828.951L825.927 47H821.847L832.503 15.512H837.015L847.671 47H843.399ZM863.568 47.576C859.632 47.576 856.352 46.136 853.728 43.256C851.136 40.376 849.84 36.376 849.84 31.256C849.84 26.2 851.168 22.216 853.824 19.304C856.48 16.392 859.808 14.936 863.808 14.936C865.728 14.936 867.408 15.336 868.848 16.136C870.32 16.904 871.52 17.8 872.448 18.824L870.288 21.416C869.456 20.52 868.512 19.8 867.456 19.256C866.4 18.712 865.2 18.44 863.856 18.44C860.88 18.44 858.48 19.592 856.656 21.896C854.864 24.168 853.968 27.256 853.968 31.16C853.968 35.128 854.848 38.28 856.608 40.616C858.368 42.92 860.736 44.072 863.712 44.072C865.216 44.072 866.56 43.768 867.744 43.16C868.928 42.52 870.016 41.64 871.008 40.52L873.216 43.016C871.968 44.456 870.56 45.576 868.992 46.376C867.424 47.176 865.616 47.576 863.568 47.576ZM879.086 47V15.512H883.07V31.304H883.214L896.318 15.512H900.83L890.99 27.512L902.366 47H897.902L888.494 30.632L883.07 37.016V47H879.086ZM918.329 47.576C914.169 47.576 910.761 46.136 908.105 43.256C905.449 40.376 904.121 36.376 904.121 31.256C904.121 26.2 905.481 22.216 908.201 19.304C910.921 16.392 914.377 14.936 918.569 14.936C920.745 14.936 922.569 15.352 924.041 16.184C925.545 16.984 926.745 17.864 927.641 18.824L925.433 21.416C924.633 20.616 923.689 19.928 922.601 19.352C921.545 18.744 920.233 18.44 918.665 18.44C915.497 18.44 912.969 19.592 911.081 21.896C909.193 24.168 908.249 27.256 908.249 31.16C908.249 35.128 909.145 38.28 910.937 40.616C912.761 42.92 915.353 44.072 918.713 44.072C921.145 44.072 923.033 43.448 924.377 42.2V33.992H917.705V30.68H928.025V43.928C927.001 44.984 925.657 45.864 923.993 46.568C922.329 47.24 920.441 47.576 918.329 47.576ZM939.554 30.44H944.834C949.922 30.44 952.466 28.408 952.466 24.344C952.466 22.296 951.81 20.856 950.498 20.024C949.186 19.16 947.298 18.728 944.834 18.728H939.554V30.44ZM939.554 47H935.57V15.512H945.41C948.642 15.512 951.282 16.168 953.33 17.48C955.41 18.792 956.45 21.08 956.45 24.344C956.45 26.808 955.794 28.776 954.482 30.248C953.202 31.72 951.49 32.728 949.346 33.272L957.362 47H952.85L945.266 33.704H939.554V47ZM974.514 47.576C970.546 47.576 967.314 46.104 964.818 43.16C962.322 40.184 961.074 36.168 961.074 31.112C961.074 26.088 962.322 22.136 964.818 19.256C967.314 16.376 970.546 14.936 974.514 14.936C978.482 14.936 981.714 16.376 984.21 19.256C986.738 22.136 988.002 26.088 988.002 31.112C988.002 36.168 986.738 40.184 984.21 43.16C981.714 46.104 978.482 47.576 974.514 47.576ZM974.514 44.072C977.33 44.072 979.586 42.904 981.282 40.568C982.978 38.2 983.826 35.048 983.826 31.112C983.826 27.208 982.978 24.12 981.282 21.848C979.586 19.576 977.33 18.44 974.514 18.44C971.698 18.44 969.442 19.576 967.746 21.848C966.05 24.12 965.202 27.208 965.202 31.112C965.202 35.048 966.05 38.2 967.746 40.568C969.442 42.904 971.698 44.072 974.514 44.072ZM1005.96 47.576C1002.73 47.576 1000.02 46.584 997.845 44.6C995.701 42.584 994.629 39.048 994.629 33.992V15.512H998.613V34.088C998.613 37.896 999.317 40.52 1000.73 41.96C1002.13 43.368 1003.88 44.072 1005.96 44.072C1008.04 44.072 1009.8 43.368 1011.24 41.96C1012.68 40.52 1013.4 37.896 1013.4 34.088V15.512H1017.24V33.992C1017.24 39.048 1016.17 42.584 1014.02 44.6C1011.88 46.584 1009.19 47.576 1005.96 47.576ZM1025.71 47V15.512H1029.84L1041.21 35.288L1044.62 41.816H1044.81C1044.72 40.216 1044.61 38.568 1044.48 36.872C1044.38 35.144 1044.33 33.448 1044.33 31.784V15.512H1048.13V47H1044L1032.57 27.176L1029.17 20.696H1028.97C1029.1 22.296 1029.21 23.928 1029.31 25.592C1029.44 27.224 1029.5 28.872 1029.5 30.536V47H1025.71ZM1056.79 47V15.512H1064.66C1069.52 15.512 1073.22 16.872 1075.75 19.592C1078.28 22.28 1079.54 26.12 1079.54 31.112C1079.54 36.136 1078.28 40.04 1075.75 42.824C1073.22 45.608 1069.59 47 1064.85 47H1056.79ZM1060.77 43.736H1064.37C1068.05 43.736 1070.8 42.632 1072.63 40.424C1074.48 38.216 1075.41 35.112 1075.41 31.112C1075.41 27.144 1074.48 24.104 1072.63 21.992C1070.8 19.848 1068.05 18.776 1064.37 18.776H1060.77V43.736Z" fill="#F4F9FF"/>
</svg>
