<svg width="137" height="80" viewBox="0 0 137 80" fill="none" xmlns="http://www.w3.org/2000/svg">
<path d="M3.67386 72.5327L0.982883 73.8588L3.63517 79.2407L6.32614 77.9146L3.67386 72.5327ZM136.132 12.9652C136.665 11.3964 135.826 9.69254 134.257 9.15954L108.692 0.473787C107.123 -0.0592136 105.419 0.780453 104.886 2.34923C104.353 3.91802 105.193 5.62185 106.762 6.15485L129.486 13.8755L121.765 36.5998C121.232 38.1685 122.072 39.8724 123.641 40.4054C125.21 40.9384 126.914 40.0987 127.447 38.5299L136.132 12.9652ZM6.32614 77.9146L134.618 14.691L131.966 9.30909L3.67386 72.5327L6.32614 77.9146Z" fill="#525252"/>
</svg>
