<svg width="2670" height="64" viewBox="0 0 2670 64" fill="none" xmlns="http://www.w3.org/2000/svg">
<path d="M0 0H2665V64H0V0Z" fill="#F4F9FF"/>
<path d="M1363.73 20.6486C1364.63 20.6424 1365.08 21.7296 1364.44 22.3601L1355.98 30.7148C1355.62 31.0724 1355.58 31.6449 1355.9 32.0448L1362.64 40.606C1363.16 41.2735 1362.67 42.2507 1361.82 42.224L1349.53 41.8374C1349.08 41.8234 1348.68 42.104 1348.55 42.5263L1344.9 53.6941C1344.64 54.4733 1343.61 54.6319 1343.13 53.9652L1336.67 44.9249C1336.39 44.5408 1335.89 44.4012 1335.45 44.5901L1324.14 49.5301C1323.33 49.8834 1322.49 49.0904 1322.8 48.2631L1326.74 37.7276C1326.93 37.2352 1326.7 36.6842 1326.22 36.4667L1315.98 31.8128C1315.17 31.4474 1315.2 30.295 1316.03 29.9718L1327.52 25.453C1327.96 25.2802 1328.22 24.8236 1328.14 24.3578L1326.31 13.3945C1326.17 12.5859 1327.02 11.9675 1327.75 12.3378L1338.23 17.646C1338.63 17.8467 1339.11 17.7619 1339.41 17.4379L1347.82 8.46815C1348.4 7.84843 1349.44 8.1896 1349.54 9.03305L1350.84 19.8505C1350.9 20.3558 1351.33 20.735 1351.84 20.7315L1363.73 20.6486Z" fill="#1F1F1F"/>
<path d="M16.2575 46V14.512H20.2415V42.592H34.0175V46H16.2575Z" fill="#1F1F1F"/>
<path d="M39.6012 46V14.512H57.7453V17.872H43.5853V27.76H55.5373V31.168H43.5853V42.592H58.2253V46H39.6012Z" fill="#1F1F1F"/>
<path d="M71.4417 46V17.872H61.9378V14.512H84.9778V17.872H75.4737V46H71.4417Z" fill="#1F1F1F"/>
<path d="M91.0801 25.312L90.3121 17.296L90.1681 12.88H94.3921L94.2481 17.296L93.4801 25.312H91.0801Z" fill="#1F1F1F"/>
<path d="M110.868 46.576C108.66 46.576 106.613 46.16 104.725 45.328C102.837 44.464 101.204 43.328 99.8285 41.92L102.229 39.136C103.349 40.32 104.66 41.28 106.164 42.016C107.7 42.72 109.285 43.072 110.917 43.072C112.997 43.072 114.613 42.608 115.765 41.68C116.917 40.72 117.493 39.472 117.493 37.936C117.493 36.336 116.997 35.184 116.005 34.48C115.013 33.744 113.764 33.04 112.26 32.368L107.749 30.4C106.245 29.792 104.804 28.864 103.428 27.616C102.052 26.368 101.365 24.592 101.365 22.288C101.365 19.888 102.292 17.904 104.148 16.336C106.036 14.736 108.405 13.936 111.253 13.936C113.109 13.936 114.837 14.304 116.437 15.04C118.069 15.744 119.444 16.672 120.564 17.824L118.405 20.416C117.445 19.488 116.372 18.768 115.188 18.256C114.036 17.712 112.725 17.44 111.253 17.44C109.493 17.44 108.068 17.856 106.98 18.688C105.924 19.52 105.396 20.64 105.396 22.048C105.396 23.552 105.957 24.672 107.076 25.408C108.197 26.144 109.381 26.768 110.629 27.28L115.092 29.2C116.916 30 118.453 31.024 119.701 32.272C120.949 33.488 121.573 35.264 121.573 37.6C121.573 40.096 120.613 42.224 118.693 43.984C116.805 45.712 114.196 46.576 110.868 46.576Z" fill="#1F1F1F"/>
<path d="M149.286 46.576C145.35 46.576 142.071 45.136 139.447 42.256C136.855 39.376 135.559 35.376 135.559 30.256C135.559 25.2 136.886 21.216 139.542 18.304C142.198 15.392 145.527 13.936 149.527 13.936C151.447 13.936 153.126 14.336 154.566 15.136C156.038 15.904 157.239 16.8 158.167 17.824L156.007 20.416C155.175 19.52 154.23 18.8 153.174 18.256C152.118 17.712 150.918 17.44 149.574 17.44C146.598 17.44 144.198 18.592 142.374 20.896C140.582 23.168 139.686 26.256 139.686 30.16C139.686 34.128 140.567 37.28 142.327 39.616C144.087 41.92 146.454 43.072 149.43 43.072C150.934 43.072 152.278 42.768 153.462 42.16C154.646 41.52 155.735 40.64 156.727 39.52L158.935 42.016C157.687 43.456 156.278 44.576 154.71 45.376C153.142 46.176 151.334 46.576 149.286 46.576Z" fill="#1F1F1F"/>
<path d="M175.014 46.576C171.046 46.576 167.814 45.104 165.318 42.16C162.822 39.184 161.574 35.168 161.574 30.112C161.574 25.088 162.822 21.136 165.318 18.256C167.814 15.376 171.046 13.936 175.014 13.936C178.982 13.936 182.214 15.376 184.71 18.256C187.238 21.136 188.502 25.088 188.502 30.112C188.502 35.168 187.238 39.184 184.71 42.16C182.214 45.104 178.982 46.576 175.014 46.576ZM175.014 43.072C177.83 43.072 180.086 41.904 181.782 39.568C183.478 37.2 184.326 34.048 184.326 30.112C184.326 26.208 183.478 23.12 181.782 20.848C180.086 18.576 177.83 17.44 175.014 17.44C172.198 17.44 169.942 18.576 168.246 20.848C166.55 23.12 165.702 26.208 165.702 30.112C165.702 34.048 166.55 37.2 168.246 39.568C169.942 41.904 172.198 43.072 175.014 43.072Z" fill="#1F1F1F"/>
<path d="M195.273 46V14.512H199.401L210.777 34.288L214.185 40.816H214.377C214.281 39.216 214.169 37.568 214.041 35.872C213.945 34.144 213.897 32.448 213.897 30.784V14.512H217.689V46H213.561L202.137 26.176L198.729 19.696H198.537C198.665 21.296 198.777 22.928 198.873 24.592C199.001 26.224 199.065 27.872 199.065 29.536V46H195.273Z" fill="#1F1F1F"/>
<path d="M226.351 46V14.512H230.479L241.855 34.288L245.263 40.816H245.455C245.359 39.216 245.247 37.568 245.119 35.872C245.023 34.144 244.975 32.448 244.975 30.784V14.512H248.767V46H244.639L233.215 26.176L229.807 19.696H229.615C229.743 21.296 229.855 22.928 229.951 24.592C230.079 26.224 230.143 27.872 230.143 29.536V46H226.351Z" fill="#1F1F1F"/>
<path d="M257.429 46V14.512H275.573V17.872H261.413V27.76H273.365V31.168H261.413V42.592H276.053V46H257.429Z" fill="#1F1F1F"/>
<path d="M294.646 46.576C290.71 46.576 287.43 45.136 284.806 42.256C282.214 39.376 280.918 35.376 280.918 30.256C280.918 25.2 282.246 21.216 284.902 18.304C287.558 15.392 290.886 13.936 294.886 13.936C296.806 13.936 298.486 14.336 299.926 15.136C301.398 15.904 302.598 16.8 303.526 17.824L301.366 20.416C300.534 19.52 299.59 18.8 298.534 18.256C297.478 17.712 296.278 17.44 294.934 17.44C291.958 17.44 289.558 18.592 287.734 20.896C285.942 23.168 285.046 26.256 285.046 30.16C285.046 34.128 285.926 37.28 287.686 39.616C289.446 41.92 291.814 43.072 294.79 43.072C296.294 43.072 297.638 42.768 298.822 42.16C300.006 41.52 301.094 40.64 302.086 39.52L304.294 42.016C303.046 43.456 301.638 44.576 300.07 45.376C298.502 46.176 296.694 46.576 294.646 46.576Z" fill="#1F1F1F"/>
<path d="M315.848 46V17.872H306.344V14.512H329.384V17.872H319.88V46H315.848Z" fill="#1F1F1F"/>
<path d="M350.088 28.384L348.6 33.184H358.056L356.568 28.384C355.992 26.624 355.448 24.88 354.936 23.152C354.424 21.392 353.912 19.6 353.4 17.776H353.208C352.728 19.6 352.232 21.392 351.72 23.152C351.208 24.88 350.664 26.624 350.088 28.384ZM362.04 46L359.064 36.4H347.592L344.568 46H340.488L351.144 14.512H355.656L366.312 46H362.04Z" fill="#1F1F1F"/>
<path d="M370.773 46V14.512H374.901L386.277 34.288L389.685 40.816H389.877C389.781 39.216 389.669 37.568 389.541 35.872C389.445 34.144 389.397 32.448 389.397 30.784V14.512H393.189V46H389.061L377.637 26.176L374.229 19.696H374.037C374.165 21.296 374.277 22.928 374.373 24.592C374.501 26.224 374.565 27.872 374.565 29.536V46H370.773Z" fill="#1F1F1F"/>
<path d="M401.851 46V14.512H409.723C414.587 14.512 418.283 15.872 420.811 18.592C423.339 21.28 424.603 25.12 424.603 30.112C424.603 35.136 423.339 39.04 420.811 41.824C418.283 44.608 414.651 46 409.915 46H401.851ZM405.835 42.736H409.435C413.115 42.736 415.867 41.632 417.691 39.424C419.547 37.216 420.475 34.112 420.475 30.112C420.475 26.144 419.547 23.104 417.691 20.992C415.867 18.848 413.115 17.776 409.435 17.776H405.835V42.736Z" fill="#1F1F1F"/>
<path d="M452.896 46.576C448.96 46.576 445.68 45.136 443.056 42.256C440.464 39.376 439.168 35.376 439.168 30.256C439.168 25.2 440.496 21.216 443.152 18.304C445.808 15.392 449.136 13.936 453.136 13.936C455.056 13.936 456.736 14.336 458.176 15.136C459.648 15.904 460.848 16.8 461.776 17.824L459.616 20.416C458.784 19.52 457.84 18.8 456.784 18.256C455.728 17.712 454.528 17.44 453.184 17.44C450.208 17.44 447.808 18.592 445.984 20.896C444.192 23.168 443.296 26.256 443.296 30.16C443.296 34.128 444.176 37.28 445.936 39.616C447.696 41.92 450.064 43.072 453.04 43.072C454.544 43.072 455.888 42.768 457.072 42.16C458.256 41.52 459.344 40.64 460.336 39.52L462.544 42.016C461.296 43.456 459.888 44.576 458.32 45.376C456.752 46.176 454.944 46.576 452.896 46.576Z" fill="#1F1F1F"/>
<path d="M472.398 29.44H477.678C482.766 29.44 485.31 27.408 485.31 23.344C485.31 21.296 484.654 19.856 483.342 19.024C482.03 18.16 480.142 17.728 477.678 17.728H472.398V29.44ZM472.398 46H468.414V14.512H478.254C481.486 14.512 484.126 15.168 486.174 16.48C488.254 17.792 489.294 20.08 489.294 23.344C489.294 25.808 488.638 27.776 487.326 29.248C486.046 30.72 484.334 31.728 482.19 32.272L490.206 46H485.694L478.11 32.704H472.398V46Z" fill="#1F1F1F"/>
<path d="M495.742 46V14.512H513.886V17.872H499.726V27.76H511.678V31.168H499.726V42.592H514.366V46H495.742Z" fill="#1F1F1F"/>
<path d="M526.478 28.384L524.99 33.184H534.446L532.958 28.384C532.382 26.624 531.838 24.88 531.326 23.152C530.814 21.392 530.302 19.6 529.79 17.776H529.598C529.118 19.6 528.622 21.392 528.11 23.152C527.598 24.88 527.054 26.624 526.478 28.384ZM538.43 46L535.454 36.4H523.982L520.958 46H516.878L527.534 14.512H532.046L542.702 46H538.43Z" fill="#1F1F1F"/>
<path d="M551.067 46V17.872H541.563V14.512H564.603V17.872H555.099V46H551.067Z" fill="#1F1F1F"/>
<path d="M570.273 46V14.512H588.417V17.872H574.257V27.76H586.209V31.168H574.257V42.592H588.897V46H570.273Z" fill="#1F1F1F"/>
<path d="M613.931 46.576C611.723 46.576 609.675 46.16 607.787 45.328C605.899 44.464 604.267 43.328 602.891 41.92L605.291 39.136C606.411 40.32 607.723 41.28 609.227 42.016C610.763 42.72 612.347 43.072 613.979 43.072C616.059 43.072 617.675 42.608 618.827 41.68C619.979 40.72 620.555 39.472 620.555 37.936C620.555 36.336 620.059 35.184 619.067 34.48C618.075 33.744 616.827 33.04 615.323 32.368L610.811 30.4C609.307 29.792 607.867 28.864 606.491 27.616C605.115 26.368 604.427 24.592 604.427 22.288C604.427 19.888 605.355 17.904 607.211 16.336C609.099 14.736 611.467 13.936 614.315 13.936C616.171 13.936 617.899 14.304 619.499 15.04C621.131 15.744 622.507 16.672 623.627 17.824L621.467 20.416C620.507 19.488 619.435 18.768 618.251 18.256C617.099 17.712 615.787 17.44 614.315 17.44C612.555 17.44 611.131 17.856 610.043 18.688C608.987 19.52 608.459 20.64 608.459 22.048C608.459 23.552 609.019 24.672 610.139 25.408C611.259 26.144 612.443 26.768 613.691 27.28L618.155 29.2C619.979 30 621.515 31.024 622.763 32.272C624.011 33.488 624.635 35.264 624.635 37.6C624.635 40.096 623.675 42.224 621.755 43.984C619.867 45.712 617.259 46.576 613.931 46.576Z" fill="#1F1F1F"/>
<path d="M642.452 46.576C638.484 46.576 635.252 45.104 632.756 42.16C630.26 39.184 629.012 35.168 629.012 30.112C629.012 25.088 630.26 21.136 632.756 18.256C635.252 15.376 638.484 13.936 642.452 13.936C646.42 13.936 649.652 15.376 652.148 18.256C654.676 21.136 655.94 25.088 655.94 30.112C655.94 35.168 654.676 39.184 652.148 42.16C649.652 45.104 646.42 46.576 642.452 46.576ZM642.452 43.072C645.268 43.072 647.524 41.904 649.22 39.568C650.916 37.2 651.764 34.048 651.764 30.112C651.764 26.208 650.916 23.12 649.22 20.848C647.524 18.576 645.268 17.44 642.452 17.44C639.636 17.44 637.38 18.576 635.684 20.848C633.988 23.12 633.14 26.208 633.14 30.112C633.14 34.048 633.988 37.2 635.684 39.568C637.38 41.904 639.636 43.072 642.452 43.072Z" fill="#1F1F1F"/>
<path d="M662.711 46V14.512H667.511L673.559 31.312C673.943 32.4 674.311 33.504 674.663 34.624C675.047 35.712 675.431 36.8 675.815 37.888H676.007C676.391 36.8 676.743 35.712 677.063 34.624C677.415 33.504 677.783 32.4 678.167 31.312L684.119 14.512H688.967V46H685.223V28.672C685.223 27.296 685.287 25.744 685.415 24.016C685.543 22.288 685.655 20.736 685.751 19.36H685.559L683.063 26.512L677.111 42.832H674.471L668.519 26.512L666.023 19.36H665.831C665.927 20.736 666.023 22.288 666.119 24.016C666.247 25.744 666.311 27.296 666.311 28.672V46H662.711Z" fill="#1F1F1F"/>
<path d="M697.586 46V14.512H715.73V17.872H701.57V27.76H713.522V31.168H701.57V42.592H716.21V46H697.586Z" fill="#1F1F1F"/>
<path d="M729.426 46V17.872H719.922V14.512H742.962V17.872H733.458V46H729.426Z" fill="#1F1F1F"/>
<path d="M748.633 46V14.512H752.617V27.712H767.257V14.512H771.289V46H767.257V31.168H752.617V46H748.633Z" fill="#1F1F1F"/>
<path d="M779.945 46V14.512H783.929V46H779.945Z" fill="#1F1F1F"/>
<path d="M792.554 46V14.512H796.682L808.058 34.288L811.466 40.816H811.658C811.562 39.216 811.45 37.568 811.322 35.872C811.226 34.144 811.178 32.448 811.178 30.784V14.512H814.97V46H810.842L799.418 26.176L796.01 19.696H795.818C795.946 21.296 796.058 22.928 796.154 24.592C796.282 26.224 796.346 27.872 796.346 29.536V46H792.554Z" fill="#1F1F1F"/>
<path d="M836.016 46.576C831.856 46.576 828.448 45.136 825.792 42.256C823.136 39.376 821.808 35.376 821.808 30.256C821.808 25.2 823.168 21.216 825.888 18.304C828.608 15.392 832.065 13.936 836.257 13.936C838.433 13.936 840.257 14.352 841.729 15.184C843.233 15.984 844.432 16.864 845.328 17.824L843.12 20.416C842.32 19.616 841.377 18.928 840.289 18.352C839.233 17.744 837.92 17.44 836.352 17.44C833.184 17.44 830.656 18.592 828.768 20.896C826.88 23.168 825.937 26.256 825.937 30.16C825.937 34.128 826.833 37.28 828.625 39.616C830.449 41.92 833.041 43.072 836.401 43.072C838.833 43.072 840.721 42.448 842.065 41.2V32.992H835.393V29.68H845.713V42.928C844.689 43.984 843.344 44.864 841.68 45.568C840.016 46.24 838.128 46.576 836.016 46.576Z" fill="#1F1F1F"/>
<path d="M868.291 28.384L866.803 33.184H876.259L874.771 28.384C874.195 26.624 873.651 24.88 873.139 23.152C872.627 21.392 872.115 19.6 871.603 17.776H871.411C870.931 19.6 870.435 21.392 869.923 23.152C869.411 24.88 868.867 26.624 868.291 28.384ZM880.243 46L877.267 36.4H865.795L862.771 46H858.691L869.347 14.512H873.859L884.515 46H880.243Z" fill="#1F1F1F"/>
<path d="M888.976 46V14.512H893.776L899.824 31.312C900.208 32.4 900.576 33.504 900.928 34.624C901.312 35.712 901.696 36.8 902.08 37.888H902.272C902.656 36.8 903.008 35.712 903.328 34.624C903.68 33.504 904.048 32.4 904.432 31.312L910.384 14.512H915.232V46H911.488V28.672C911.488 27.296 911.552 25.744 911.68 24.016C911.808 22.288 911.92 20.736 912.016 19.36H911.824L909.328 26.512L903.376 42.832H900.736L894.784 26.512L892.288 19.36H892.096C892.192 20.736 892.288 22.288 892.384 24.016C892.512 25.744 892.576 27.296 892.576 28.672V46H888.976Z" fill="#1F1F1F"/>
<path d="M929.275 28.384L927.787 33.184H937.243L935.755 28.384C935.179 26.624 934.635 24.88 934.123 23.152C933.611 21.392 933.099 19.6 932.587 17.776H932.395C931.915 19.6 931.419 21.392 930.907 23.152C930.395 24.88 929.851 26.624 929.275 28.384ZM941.227 46L938.251 36.4H926.779L923.755 46H919.675L930.331 14.512H934.843L945.499 46H941.227Z" fill="#1F1F1F"/>
<path d="M947.426 46V43.6L963.986 17.872H948.914V14.512H968.978V16.864L952.37 42.592H969.122V46H947.426Z" fill="#1F1F1F"/>
<path d="M975.461 46V14.512H979.445V46H975.461Z" fill="#1F1F1F"/>
<path d="M988.07 46V14.512H992.198L1003.57 34.288L1006.98 40.816H1007.17C1007.08 39.216 1006.97 37.568 1006.84 35.872C1006.74 34.144 1006.69 32.448 1006.69 30.784V14.512H1010.49V46H1006.36L994.934 26.176L991.526 19.696H991.334C991.462 21.296 991.574 22.928 991.67 24.592C991.798 26.224 991.862 27.872 991.862 29.536V46H988.07Z" fill="#1F1F1F"/>
<path d="M1031.53 46.576C1027.37 46.576 1023.96 45.136 1021.31 42.256C1018.65 39.376 1017.32 35.376 1017.32 30.256C1017.32 25.2 1018.68 21.216 1021.4 18.304C1024.12 15.392 1027.58 13.936 1031.77 13.936C1033.95 13.936 1035.77 14.352 1037.24 15.184C1038.75 15.984 1039.95 16.864 1040.84 17.824L1038.64 20.416C1037.84 19.616 1036.89 18.928 1035.8 18.352C1034.75 17.744 1033.44 17.44 1031.87 17.44C1028.7 17.44 1026.17 18.592 1024.28 20.896C1022.4 23.168 1021.45 26.256 1021.45 30.16C1021.45 34.128 1022.35 37.28 1024.14 39.616C1025.96 41.92 1028.56 43.072 1031.92 43.072C1034.35 43.072 1036.24 42.448 1037.58 41.2V32.992H1030.91V29.68H1041.23V42.928C1040.2 43.984 1038.86 44.864 1037.2 45.568C1035.53 46.24 1033.64 46.576 1031.53 46.576Z" fill="#1F1F1F"/>
<path d="M1064.91 46V17.872H1055.41V14.512H1078.45V17.872H1068.94V46H1064.91Z" fill="#1F1F1F"/>
<path d="M1094.56 46.576C1090.59 46.576 1087.36 45.104 1084.86 42.16C1082.37 39.184 1081.12 35.168 1081.12 30.112C1081.12 25.088 1082.37 21.136 1084.86 18.256C1087.36 15.376 1090.59 13.936 1094.56 13.936C1098.53 13.936 1101.76 15.376 1104.26 18.256C1106.78 21.136 1108.05 25.088 1108.05 30.112C1108.05 35.168 1106.78 39.184 1104.26 42.16C1101.76 45.104 1098.53 46.576 1094.56 46.576ZM1094.56 43.072C1097.38 43.072 1099.63 41.904 1101.33 39.568C1103.02 37.2 1103.87 34.048 1103.87 30.112C1103.87 26.208 1103.02 23.12 1101.33 20.848C1099.63 18.576 1097.38 17.44 1094.56 17.44C1091.75 17.44 1089.49 18.576 1087.79 20.848C1086.1 23.12 1085.25 26.208 1085.25 30.112C1085.25 34.048 1086.1 37.2 1087.79 39.568C1089.49 41.904 1091.75 43.072 1094.56 43.072Z" fill="#1F1F1F"/>
<path d="M1127.2 46.576C1123.04 46.576 1119.64 45.136 1116.98 42.256C1114.32 39.376 1113 35.376 1113 30.256C1113 25.2 1114.36 21.216 1117.08 18.304C1119.8 15.392 1123.25 13.936 1127.44 13.936C1129.62 13.936 1131.44 14.352 1132.92 15.184C1134.42 15.984 1135.62 16.864 1136.52 17.824L1134.31 20.416C1133.51 19.616 1132.56 18.928 1131.48 18.352C1130.42 17.744 1129.11 17.44 1127.54 17.44C1124.37 17.44 1121.84 18.592 1119.96 20.896C1118.07 23.168 1117.12 26.256 1117.12 30.16C1117.12 34.128 1118.02 37.28 1119.81 39.616C1121.64 41.92 1124.23 43.072 1127.59 43.072C1130.02 43.072 1131.91 42.448 1133.25 41.2V32.992H1126.58V29.68H1136.9V42.928C1135.88 43.984 1134.53 44.864 1132.87 45.568C1131.2 46.24 1129.32 46.576 1127.2 46.576Z" fill="#1F1F1F"/>
<path d="M1144.44 46V14.512H1162.59V17.872H1148.43V27.76H1160.38V31.168H1148.43V42.592H1163.07V46H1144.44Z" fill="#1F1F1F"/>
<path d="M1176.29 46V17.872H1166.78V14.512H1189.82V17.872H1180.32V46H1176.29Z" fill="#1F1F1F"/>
<path d="M1195.49 46V14.512H1199.48V27.712H1214.12V14.512H1218.15V46H1214.12V31.168H1199.48V46H1195.49Z" fill="#1F1F1F"/>
<path d="M1226.8 46V14.512H1244.95V17.872H1230.79V27.76H1242.74V31.168H1230.79V42.592H1245.43V46H1226.8Z" fill="#1F1F1F"/>
<path d="M1256.1 29.44H1261.38C1266.47 29.44 1269.01 27.408 1269.01 23.344C1269.01 21.296 1268.36 19.856 1267.04 19.024C1265.73 18.16 1263.84 17.728 1261.38 17.728H1256.1V29.44ZM1256.1 46H1252.12V14.512H1261.96C1265.19 14.512 1267.83 15.168 1269.88 16.48C1271.96 17.792 1273 20.08 1273 23.344C1273 25.808 1272.34 27.776 1271.03 29.248C1269.75 30.72 1268.04 31.728 1265.89 32.272L1273.91 46H1269.4L1261.81 32.704H1256.1V46Z" fill="#1F1F1F"/>
<path d="M1280.69 36.496L1280.17 18.352L1280.07 13.84H1284.05L1283.96 18.352L1283.43 36.496H1280.69ZM1282.08 46.576C1281.28 46.576 1280.6 46.304 1280.02 45.76C1279.48 45.184 1279.2 44.464 1279.2 43.6C1279.2 42.704 1279.48 41.968 1280.02 41.392C1280.6 40.816 1281.28 40.528 1282.08 40.528C1282.85 40.528 1283.51 40.816 1284.05 41.392C1284.63 41.968 1284.92 42.704 1284.92 43.6C1284.92 44.464 1284.63 45.184 1284.05 45.76C1283.51 46.304 1282.85 46.576 1282.08 46.576Z" fill="#1F1F1F"/>
<path d="M1401.26 46V14.512H1405.24V42.592H1419.02V46H1401.26Z" fill="#1F1F1F"/>
<path d="M1424.6 46V14.512H1442.75V17.872H1428.59V27.76H1440.54V31.168H1428.59V42.592H1443.23V46H1424.6Z" fill="#1F1F1F"/>
<path d="M1456.44 46V17.872H1446.94V14.512H1469.98V17.872H1460.47V46H1456.44Z" fill="#1F1F1F"/>
<path d="M1476.08 25.312L1475.31 17.296L1475.17 12.88H1479.39L1479.25 17.296L1478.48 25.312H1476.08Z" fill="#1F1F1F"/>
<path d="M1495.87 46.576C1493.66 46.576 1491.61 46.16 1489.72 45.328C1487.84 44.464 1486.2 43.328 1484.83 41.92L1487.23 39.136C1488.35 40.32 1489.66 41.28 1491.16 42.016C1492.7 42.72 1494.28 43.072 1495.92 43.072C1498 43.072 1499.61 42.608 1500.76 41.68C1501.92 40.72 1502.49 39.472 1502.49 37.936C1502.49 36.336 1502 35.184 1501 34.48C1500.01 33.744 1498.76 33.04 1497.26 32.368L1492.75 30.4C1491.24 29.792 1489.8 28.864 1488.43 27.616C1487.05 26.368 1486.36 24.592 1486.36 22.288C1486.36 19.888 1487.29 17.904 1489.15 16.336C1491.04 14.736 1493.4 13.936 1496.25 13.936C1498.11 13.936 1499.84 14.304 1501.44 15.04C1503.07 15.744 1504.44 16.672 1505.56 17.824L1503.4 20.416C1502.44 19.488 1501.37 18.768 1500.19 18.256C1499.04 17.712 1497.72 17.44 1496.25 17.44C1494.49 17.44 1493.07 17.856 1491.98 18.688C1490.92 19.52 1490.4 20.64 1490.4 22.048C1490.4 23.552 1490.96 24.672 1492.08 25.408C1493.2 26.144 1494.38 26.768 1495.63 27.28L1500.09 29.2C1501.92 30 1503.45 31.024 1504.7 32.272C1505.95 33.488 1506.57 35.264 1506.57 37.6C1506.57 40.096 1505.61 42.224 1503.69 43.984C1501.8 45.712 1499.2 46.576 1495.87 46.576Z" fill="#1F1F1F"/>
<path d="M1534.29 46.576C1530.35 46.576 1527.07 45.136 1524.45 42.256C1521.85 39.376 1520.56 35.376 1520.56 30.256C1520.56 25.2 1521.89 21.216 1524.54 18.304C1527.2 15.392 1530.53 13.936 1534.53 13.936C1536.45 13.936 1538.13 14.336 1539.57 15.136C1541.04 15.904 1542.24 16.8 1543.17 17.824L1541.01 20.416C1540.17 19.52 1539.23 18.8 1538.17 18.256C1537.12 17.712 1535.92 17.44 1534.57 17.44C1531.6 17.44 1529.2 18.592 1527.37 20.896C1525.58 23.168 1524.69 26.256 1524.69 30.16C1524.69 34.128 1525.57 37.28 1527.33 39.616C1529.09 41.92 1531.45 43.072 1534.43 43.072C1535.93 43.072 1537.28 42.768 1538.46 42.16C1539.65 41.52 1540.73 40.64 1541.73 39.52L1543.93 42.016C1542.69 43.456 1541.28 44.576 1539.71 45.376C1538.14 46.176 1536.33 46.576 1534.29 46.576Z" fill="#1F1F1F"/>
<path d="M1560.01 46.576C1556.05 46.576 1552.81 45.104 1550.32 42.16C1547.82 39.184 1546.57 35.168 1546.57 30.112C1546.57 25.088 1547.82 21.136 1550.32 18.256C1552.81 15.376 1556.05 13.936 1560.01 13.936C1563.98 13.936 1567.21 15.376 1569.71 18.256C1572.24 21.136 1573.5 25.088 1573.5 30.112C1573.5 35.168 1572.24 39.184 1569.71 42.16C1567.21 45.104 1563.98 46.576 1560.01 46.576ZM1560.01 43.072C1562.83 43.072 1565.09 41.904 1566.78 39.568C1568.48 37.2 1569.33 34.048 1569.33 30.112C1569.33 26.208 1568.48 23.12 1566.78 20.848C1565.09 18.576 1562.83 17.44 1560.01 17.44C1557.2 17.44 1554.94 18.576 1553.25 20.848C1551.55 23.12 1550.7 26.208 1550.7 30.112C1550.7 34.048 1551.55 37.2 1553.25 39.568C1554.94 41.904 1557.2 43.072 1560.01 43.072Z" fill="#1F1F1F"/>
<path d="M1580.27 46V14.512H1584.4L1595.78 34.288L1599.19 40.816H1599.38C1599.28 39.216 1599.17 37.568 1599.04 35.872C1598.95 34.144 1598.9 32.448 1598.9 30.784V14.512H1602.69V46H1598.56L1587.14 26.176L1583.73 19.696H1583.54C1583.67 21.296 1583.78 22.928 1583.87 24.592C1584 26.224 1584.07 27.872 1584.07 29.536V46H1580.27Z" fill="#1F1F1F"/>
<path d="M1611.35 46V14.512H1615.48L1626.86 34.288L1630.26 40.816H1630.46C1630.36 39.216 1630.25 37.568 1630.12 35.872C1630.02 34.144 1629.98 32.448 1629.98 30.784V14.512H1633.77V46H1629.64L1618.22 26.176L1614.81 19.696H1614.62C1614.74 21.296 1614.86 22.928 1614.95 24.592C1615.08 26.224 1615.14 27.872 1615.14 29.536V46H1611.35Z" fill="#1F1F1F"/>
<path d="M1642.43 46V14.512H1660.57V17.872H1646.41V27.76H1658.37V31.168H1646.41V42.592H1661.05V46H1642.43Z" fill="#1F1F1F"/>
<path d="M1679.65 46.576C1675.71 46.576 1672.43 45.136 1669.81 42.256C1667.21 39.376 1665.92 35.376 1665.92 30.256C1665.92 25.2 1667.25 21.216 1669.9 18.304C1672.56 15.392 1675.89 13.936 1679.89 13.936C1681.81 13.936 1683.49 14.336 1684.93 15.136C1686.4 15.904 1687.6 16.8 1688.53 17.824L1686.37 20.416C1685.53 19.52 1684.59 18.8 1683.53 18.256C1682.48 17.712 1681.28 17.44 1679.93 17.44C1676.96 17.44 1674.56 18.592 1672.73 20.896C1670.94 23.168 1670.05 26.256 1670.05 30.16C1670.05 34.128 1670.93 37.28 1672.69 39.616C1674.45 41.92 1676.81 43.072 1679.79 43.072C1681.29 43.072 1682.64 42.768 1683.82 42.16C1685.01 41.52 1686.09 40.64 1687.09 39.52L1689.29 42.016C1688.05 43.456 1686.64 44.576 1685.07 45.376C1683.5 46.176 1681.69 46.576 1679.65 46.576Z" fill="#1F1F1F"/>
<path d="M1700.85 46V17.872H1691.34V14.512H1714.38V17.872H1704.88V46H1700.85Z" fill="#1F1F1F"/>
<path d="M1735.09 28.384L1733.6 33.184H1743.06L1741.57 28.384C1740.99 26.624 1740.45 24.88 1739.94 23.152C1739.42 21.392 1738.91 19.6 1738.4 17.776H1738.21C1737.73 19.6 1737.23 21.392 1736.72 23.152C1736.21 24.88 1735.66 26.624 1735.09 28.384ZM1747.04 46L1744.06 36.4H1732.59L1729.57 46H1725.49L1736.14 14.512H1740.66L1751.31 46H1747.04Z" fill="#1F1F1F"/>
<path d="M1755.77 46V14.512H1759.9L1771.28 34.288L1774.69 40.816H1774.88C1774.78 39.216 1774.67 37.568 1774.54 35.872C1774.45 34.144 1774.4 32.448 1774.4 30.784V14.512H1778.19V46H1774.06L1762.64 26.176L1759.23 19.696H1759.04C1759.17 21.296 1759.28 22.928 1759.37 24.592C1759.5 26.224 1759.57 27.872 1759.57 29.536V46H1755.77Z" fill="#1F1F1F"/>
<path d="M1786.85 46V14.512H1794.72C1799.59 14.512 1803.28 15.872 1805.81 18.592C1808.34 21.28 1809.6 25.12 1809.6 30.112C1809.6 35.136 1808.34 39.04 1805.81 41.824C1803.28 44.608 1799.65 46 1794.92 46H1786.85ZM1790.84 42.736H1794.44C1798.12 42.736 1800.87 41.632 1802.69 39.424C1804.55 37.216 1805.48 34.112 1805.48 30.112C1805.48 26.144 1804.55 23.104 1802.69 20.992C1800.87 18.848 1798.12 17.776 1794.44 17.776H1790.84V42.736Z" fill="#1F1F1F"/>
<path d="M1837.9 46.576C1833.96 46.576 1830.68 45.136 1828.06 42.256C1825.46 39.376 1824.17 35.376 1824.17 30.256C1824.17 25.2 1825.5 21.216 1828.15 18.304C1830.81 15.392 1834.14 13.936 1838.14 13.936C1840.06 13.936 1841.74 14.336 1843.18 15.136C1844.65 15.904 1845.85 16.8 1846.78 17.824L1844.62 20.416C1843.78 19.52 1842.84 18.8 1841.78 18.256C1840.73 17.712 1839.53 17.44 1838.18 17.44C1835.21 17.44 1832.81 18.592 1830.98 20.896C1829.19 23.168 1828.3 26.256 1828.3 30.16C1828.3 34.128 1829.18 37.28 1830.94 39.616C1832.7 41.92 1835.06 43.072 1838.04 43.072C1839.54 43.072 1840.89 42.768 1842.07 42.16C1843.26 41.52 1844.34 40.64 1845.34 39.52L1847.54 42.016C1846.3 43.456 1844.89 44.576 1843.32 45.376C1841.75 46.176 1839.94 46.576 1837.9 46.576Z" fill="#1F1F1F"/>
<path d="M1857.4 29.44H1862.68C1867.77 29.44 1870.31 27.408 1870.31 23.344C1870.31 21.296 1869.65 19.856 1868.34 19.024C1867.03 18.16 1865.14 17.728 1862.68 17.728H1857.4V29.44ZM1857.4 46H1853.41V14.512H1863.25C1866.49 14.512 1869.13 15.168 1871.17 16.48C1873.25 17.792 1874.29 20.08 1874.29 23.344C1874.29 25.808 1873.64 27.776 1872.33 29.248C1871.05 30.72 1869.33 31.728 1867.19 32.272L1875.21 46H1870.69L1863.11 32.704H1857.4V46Z" fill="#1F1F1F"/>
<path d="M1880.74 46V14.512H1898.89V17.872H1884.73V27.76H1896.68V31.168H1884.73V42.592H1899.37V46H1880.74Z" fill="#1F1F1F"/>
<path d="M1911.48 28.384L1909.99 33.184H1919.45L1917.96 28.384C1917.38 26.624 1916.84 24.88 1916.33 23.152C1915.81 21.392 1915.3 19.6 1914.79 17.776H1914.6C1914.12 19.6 1913.62 21.392 1913.11 23.152C1912.6 24.88 1912.05 26.624 1911.48 28.384ZM1923.43 46L1920.45 36.4H1908.98L1905.96 46H1901.88L1912.53 14.512H1917.05L1927.7 46H1923.43Z" fill="#1F1F1F"/>
<path d="M1936.07 46V17.872H1926.56V14.512H1949.6V17.872H1940.1V46H1936.07Z" fill="#1F1F1F"/>
<path d="M1955.27 46V14.512H1973.42V17.872H1959.26V27.76H1971.21V31.168H1959.26V42.592H1973.9V46H1955.27Z" fill="#1F1F1F"/>
<path d="M1998.93 46.576C1996.72 46.576 1994.67 46.16 1992.79 45.328C1990.9 44.464 1989.27 43.328 1987.89 41.92L1990.29 39.136C1991.41 40.32 1992.72 41.28 1994.23 42.016C1995.76 42.72 1997.35 43.072 1998.98 43.072C2001.06 43.072 2002.68 42.608 2003.83 41.68C2004.98 40.72 2005.56 39.472 2005.56 37.936C2005.56 36.336 2005.06 35.184 2004.07 34.48C2003.08 33.744 2001.83 33.04 2000.32 32.368L1995.81 30.4C1994.31 29.792 1992.87 28.864 1991.49 27.616C1990.11 26.368 1989.43 24.592 1989.43 22.288C1989.43 19.888 1990.36 17.904 1992.21 16.336C1994.1 14.736 1996.47 13.936 1999.31 13.936C2001.17 13.936 2002.9 14.304 2004.5 15.04C2006.13 15.744 2007.51 16.672 2008.63 17.824L2006.47 20.416C2005.51 19.488 2004.43 18.768 2003.25 18.256C2002.1 17.712 2000.79 17.44 1999.31 17.44C1997.55 17.44 1996.13 17.856 1995.04 18.688C1993.99 19.52 1993.46 20.64 1993.46 22.048C1993.46 23.552 1994.02 24.672 1995.14 25.408C1996.26 26.144 1997.44 26.768 1998.69 27.28L2003.16 29.2C2004.98 30 2006.52 31.024 2007.76 32.272C2009.01 33.488 2009.64 35.264 2009.64 37.6C2009.64 40.096 2008.68 42.224 2006.76 43.984C2004.87 45.712 2002.26 46.576 1998.93 46.576Z" fill="#1F1F1F"/>
<path d="M2027.45 46.576C2023.48 46.576 2020.25 45.104 2017.76 42.16C2015.26 39.184 2014.01 35.168 2014.01 30.112C2014.01 25.088 2015.26 21.136 2017.76 18.256C2020.25 15.376 2023.48 13.936 2027.45 13.936C2031.42 13.936 2034.65 15.376 2037.15 18.256C2039.68 21.136 2040.94 25.088 2040.94 30.112C2040.94 35.168 2039.68 39.184 2037.15 42.16C2034.65 45.104 2031.42 46.576 2027.45 46.576ZM2027.45 43.072C2030.27 43.072 2032.52 41.904 2034.22 39.568C2035.92 37.2 2036.76 34.048 2036.76 30.112C2036.76 26.208 2035.92 23.12 2034.22 20.848C2032.52 18.576 2030.27 17.44 2027.45 17.44C2024.64 17.44 2022.38 18.576 2020.68 20.848C2018.99 23.12 2018.14 26.208 2018.14 30.112C2018.14 34.048 2018.99 37.2 2020.68 39.568C2022.38 41.904 2024.64 43.072 2027.45 43.072Z" fill="#1F1F1F"/>
<path d="M2047.71 46V14.512H2052.51L2058.56 31.312C2058.94 32.4 2059.31 33.504 2059.66 34.624C2060.05 35.712 2060.43 36.8 2060.81 37.888H2061.01C2061.39 36.8 2061.74 35.712 2062.06 34.624C2062.41 33.504 2062.78 32.4 2063.17 31.312L2069.12 14.512H2073.97V46H2070.22V28.672C2070.22 27.296 2070.29 25.744 2070.41 24.016C2070.54 22.288 2070.65 20.736 2070.75 19.36H2070.56L2068.06 26.512L2062.11 42.832H2059.47L2053.52 26.512L2051.02 19.36H2050.83C2050.93 20.736 2051.02 22.288 2051.12 24.016C2051.25 25.744 2051.31 27.296 2051.31 28.672V46H2047.71Z" fill="#1F1F1F"/>
<path d="M2082.59 46V14.512H2100.73V17.872H2086.57V27.76H2098.52V31.168H2086.57V42.592H2101.21V46H2082.59Z" fill="#1F1F1F"/>
<path d="M2114.43 46V17.872H2104.92V14.512H2127.96V17.872H2118.46V46H2114.43Z" fill="#1F1F1F"/>
<path d="M2133.63 46V14.512H2137.62V27.712H2152.26V14.512H2156.29V46H2152.26V31.168H2137.62V46H2133.63Z" fill="#1F1F1F"/>
<path d="M2164.95 46V14.512H2168.93V46H2164.95Z" fill="#1F1F1F"/>
<path d="M2177.55 46V14.512H2181.68L2193.06 34.288L2196.47 40.816H2196.66C2196.56 39.216 2196.45 37.568 2196.32 35.872C2196.23 34.144 2196.18 32.448 2196.18 30.784V14.512H2199.97V46H2195.84L2184.42 26.176L2181.01 19.696H2180.82C2180.95 21.296 2181.06 22.928 2181.15 24.592C2181.28 26.224 2181.35 27.872 2181.35 29.536V46H2177.55Z" fill="#1F1F1F"/>
<path d="M2221.02 46.576C2216.86 46.576 2213.45 45.136 2210.79 42.256C2208.14 39.376 2206.81 35.376 2206.81 30.256C2206.81 25.2 2208.17 21.216 2210.89 18.304C2213.61 15.392 2217.06 13.936 2221.26 13.936C2223.43 13.936 2225.26 14.352 2226.73 15.184C2228.23 15.984 2229.43 16.864 2230.33 17.824L2228.12 20.416C2227.32 19.616 2226.38 18.928 2225.29 18.352C2224.23 17.744 2222.92 17.44 2221.35 17.44C2218.18 17.44 2215.66 18.592 2213.77 20.896C2211.88 23.168 2210.94 26.256 2210.94 30.16C2210.94 34.128 2211.83 37.28 2213.62 39.616C2215.45 41.92 2218.04 43.072 2221.4 43.072C2223.83 43.072 2225.72 42.448 2227.06 41.2V32.992H2220.39V29.68H2230.71V42.928C2229.69 43.984 2228.34 44.864 2226.68 45.568C2225.02 46.24 2223.13 46.576 2221.02 46.576Z" fill="#1F1F1F"/>
<path d="M2253.29 28.384L2251.8 33.184H2261.26L2259.77 28.384C2259.19 26.624 2258.65 24.88 2258.14 23.152C2257.63 21.392 2257.11 19.6 2256.6 17.776H2256.41C2255.93 19.6 2255.43 21.392 2254.92 23.152C2254.41 24.88 2253.87 26.624 2253.29 28.384ZM2265.24 46L2262.27 36.4H2250.79L2247.77 46H2243.69L2254.35 14.512H2258.86L2269.51 46H2265.24Z" fill="#1F1F1F"/>
<path d="M2273.98 46V14.512H2278.78L2284.82 31.312C2285.21 32.4 2285.58 33.504 2285.93 34.624C2286.31 35.712 2286.7 36.8 2287.08 37.888H2287.27C2287.66 36.8 2288.01 35.712 2288.33 34.624C2288.68 33.504 2289.05 32.4 2289.43 31.312L2295.38 14.512H2300.23V46H2296.49V28.672C2296.49 27.296 2296.55 25.744 2296.68 24.016C2296.81 22.288 2296.92 20.736 2297.02 19.36H2296.82L2294.33 26.512L2288.38 42.832H2285.74L2279.78 26.512L2277.29 19.36H2277.1C2277.19 20.736 2277.29 22.288 2277.38 24.016C2277.51 25.744 2277.58 27.296 2277.58 28.672V46H2273.98Z" fill="#1F1F1F"/>
<path d="M2314.28 28.384L2312.79 33.184H2322.24L2320.76 28.384C2320.18 26.624 2319.64 24.88 2319.12 23.152C2318.61 21.392 2318.1 19.6 2317.59 17.776H2317.4C2316.92 19.6 2316.42 21.392 2315.91 23.152C2315.4 24.88 2314.85 26.624 2314.28 28.384ZM2326.23 46L2323.25 36.4H2311.78L2308.76 46H2304.68L2315.33 14.512H2319.84L2330.5 46H2326.23Z" fill="#1F1F1F"/>
<path d="M2332.43 46V43.6L2348.99 17.872H2333.91V14.512H2353.98V16.864L2337.37 42.592H2354.12V46H2332.43Z" fill="#1F1F1F"/>
<path d="M2360.46 46V14.512H2364.44V46H2360.46Z" fill="#1F1F1F"/>
<path d="M2373.07 46V14.512H2377.2L2388.57 34.288L2391.98 40.816H2392.17C2392.08 39.216 2391.97 37.568 2391.84 35.872C2391.74 34.144 2391.69 32.448 2391.69 30.784V14.512H2395.49V46H2391.36L2379.93 26.176L2376.53 19.696H2376.33C2376.46 21.296 2376.57 22.928 2376.67 24.592C2376.8 26.224 2376.86 27.872 2376.86 29.536V46H2373.07Z" fill="#1F1F1F"/>
<path d="M2416.53 46.576C2412.37 46.576 2408.96 45.136 2406.31 42.256C2403.65 39.376 2402.32 35.376 2402.32 30.256C2402.32 25.2 2403.68 21.216 2406.4 18.304C2409.12 15.392 2412.58 13.936 2416.77 13.936C2418.95 13.936 2420.77 14.352 2422.24 15.184C2423.75 15.984 2424.95 16.864 2425.84 17.824L2423.64 20.416C2422.84 19.616 2421.89 18.928 2420.8 18.352C2419.75 17.744 2418.44 17.44 2416.87 17.44C2413.7 17.44 2411.17 18.592 2409.28 20.896C2407.4 23.168 2406.45 26.256 2406.45 30.16C2406.45 34.128 2407.35 37.28 2409.14 39.616C2410.96 41.92 2413.56 43.072 2416.92 43.072C2419.35 43.072 2421.24 42.448 2422.58 41.2V32.992H2415.91V29.68H2426.23V42.928C2425.2 43.984 2423.86 44.864 2422.2 45.568C2420.53 46.24 2418.64 46.576 2416.53 46.576Z" fill="#1F1F1F"/>
<path d="M2449.91 46V17.872H2440.41V14.512H2463.45V17.872H2453.94V46H2449.91Z" fill="#1F1F1F"/>
<path d="M2479.56 46.576C2475.59 46.576 2472.36 45.104 2469.86 42.16C2467.37 39.184 2466.12 35.168 2466.12 30.112C2466.12 25.088 2467.37 21.136 2469.86 18.256C2472.36 15.376 2475.59 13.936 2479.56 13.936C2483.53 13.936 2486.76 15.376 2489.26 18.256C2491.79 21.136 2493.05 25.088 2493.05 30.112C2493.05 35.168 2491.79 39.184 2489.26 42.16C2486.76 45.104 2483.53 46.576 2479.56 46.576ZM2479.56 43.072C2482.38 43.072 2484.63 41.904 2486.33 39.568C2488.03 37.2 2488.87 34.048 2488.87 30.112C2488.87 26.208 2488.03 23.12 2486.33 20.848C2484.63 18.576 2482.38 17.44 2479.56 17.44C2476.75 17.44 2474.49 18.576 2472.79 20.848C2471.1 23.12 2470.25 26.208 2470.25 30.112C2470.25 34.048 2471.1 37.2 2472.79 39.568C2474.49 41.904 2476.75 43.072 2479.56 43.072Z" fill="#1F1F1F"/>
<path d="M2512.2 46.576C2508.04 46.576 2504.64 45.136 2501.98 42.256C2499.32 39.376 2498 35.376 2498 30.256C2498 25.2 2499.36 21.216 2502.08 18.304C2504.8 15.392 2508.25 13.936 2512.44 13.936C2514.62 13.936 2516.44 14.352 2517.92 15.184C2519.42 15.984 2520.62 16.864 2521.52 17.824L2519.31 20.416C2518.51 19.616 2517.56 18.928 2516.48 18.352C2515.42 17.744 2514.11 17.44 2512.54 17.44C2509.37 17.44 2506.84 18.592 2504.96 20.896C2503.07 23.168 2502.12 26.256 2502.12 30.16C2502.12 34.128 2503.02 37.28 2504.81 39.616C2506.64 41.92 2509.23 43.072 2512.59 43.072C2515.02 43.072 2516.91 42.448 2518.25 41.2V32.992H2511.58V29.68H2521.9V42.928C2520.88 43.984 2519.53 44.864 2517.87 45.568C2516.2 46.24 2514.32 46.576 2512.2 46.576Z" fill="#1F1F1F"/>
<path d="M2529.45 46V14.512H2547.59V17.872H2533.43V27.76H2545.38V31.168H2533.43V42.592H2548.07V46H2529.45Z" fill="#1F1F1F"/>
<path d="M2561.29 46V17.872H2551.78V14.512H2574.82V17.872H2565.32V46H2561.29Z" fill="#1F1F1F"/>
<path d="M2580.49 46V14.512H2584.48V27.712H2599.12V14.512H2603.15V46H2599.12V31.168H2584.48V46H2580.49Z" fill="#1F1F1F"/>
<path d="M2611.8 46V14.512H2629.95V17.872H2615.79V27.76H2627.74V31.168H2615.79V42.592H2630.43V46H2611.8Z" fill="#1F1F1F"/>
<path d="M2641.1 29.44H2646.38C2651.47 29.44 2654.01 27.408 2654.01 23.344C2654.01 21.296 2653.36 19.856 2652.04 19.024C2650.73 18.16 2648.84 17.728 2646.38 17.728H2641.1V29.44ZM2641.1 46H2637.12V14.512H2646.96C2650.19 14.512 2652.83 15.168 2654.88 16.48C2656.96 17.792 2658 20.08 2658 23.344C2658 25.808 2657.34 27.776 2656.03 29.248C2654.75 30.72 2653.04 31.728 2650.89 32.272L2658.91 46H2654.4L2646.81 32.704H2641.1V46Z" fill="#1F1F1F"/>
<path d="M2665.69 36.496L2665.17 18.352L2665.07 13.84H2669.05L2668.96 18.352L2668.43 36.496H2665.69ZM2667.08 46.576C2666.28 46.576 2665.6 46.304 2665.02 45.76C2664.48 45.184 2664.21 44.464 2664.21 43.6C2664.21 42.704 2664.48 41.968 2665.02 41.392C2665.6 40.816 2666.28 40.528 2667.08 40.528C2667.85 40.528 2668.51 40.816 2669.05 41.392C2669.63 41.968 2669.92 42.704 2669.92 43.6C2669.92 44.464 2669.63 45.184 2669.05 45.76C2668.51 46.304 2667.85 46.576 2667.08 46.576Z" fill="#1F1F1F"/>
</svg>
