<svg width="24" height="28" viewBox="0 0 24 28" fill="none" xmlns="http://www.w3.org/2000/svg">
<path d="M20.2317 0H24C23.1134 0.261255 22.4484 0.561698 22.005 0.90133C21.5617 1.24096 21.2326 1.58712 21.0176 1.93982L2.19647 27.9608H0.0403023L1.55164 1.68509C1.57851 1.35853 1.48447 1.05808 1.26952 0.783765C1.06801 0.509447 0.644836 0.248192 0 0H5.23929C4.78254 0.117565 4.43325 0.241661 4.19144 0.372288C3.96306 0.489853 3.80185 0.613949 3.70781 0.744577C3.6272 0.862141 3.56003 0.979706 3.5063 1.09727C3.37196 1.46303 3.30479 1.80919 3.30479 2.13576L1.91436 27.9216L20.534 2.11617C20.7893 1.77653 20.984 1.43037 21.1184 1.07768C21.1587 0.973175 21.1721 0.862141 21.1587 0.744577C21.1587 0.613949 21.0915 0.489853 20.9572 0.372288C20.8228 0.241661 20.581 0.117565 20.2317 0Z" fill="#F4F9FF"/>
<path d="M14.3992 26.7068C14.5335 26.341 14.7686 26.0341 15.1045 25.7859C15.4538 25.5377 15.8165 25.4136 16.1926 25.4136C16.5554 25.4136 16.8173 25.5377 16.9785 25.7859C17.1397 26.0341 17.1532 26.341 17.0188 26.7068C16.8711 27.0725 16.6225 27.3795 16.2732 27.6277C15.9374 27.8759 15.5881 28 15.2254 28C14.8492 28 14.5806 27.8759 14.4193 27.6277C14.2581 27.3795 14.2514 27.0725 14.3992 26.7068Z" fill="#F4F9FF"/>
</svg>
