<svg width="1348" height="67" viewBox="0 0 1348 67" fill="none" xmlns="http://www.w3.org/2000/svg">
<path d="M1335.73 22.6486C1336.63 22.6424 1337.08 23.7296 1336.44 24.3601L1327.98 32.7148C1327.62 33.0724 1327.58 33.6449 1327.9 34.0448L1334.64 42.606C1335.16 43.2735 1334.67 44.2507 1333.82 44.224L1321.53 43.8374C1321.08 43.8234 1320.68 44.104 1320.55 44.5263L1316.9 55.6941C1316.64 56.4733 1315.61 56.6319 1315.13 55.9652L1308.67 46.9249C1308.39 46.5408 1307.89 46.4012 1307.45 46.5901L1296.14 51.5301C1295.33 51.8834 1294.49 51.0904 1294.8 50.2631L1298.74 39.7276C1298.93 39.2352 1298.7 38.6842 1298.22 38.4667L1287.98 33.8128C1287.17 33.4474 1287.2 32.295 1288.03 31.9718L1299.52 27.453C1299.96 27.2802 1300.22 26.8236 1300.14 26.3578L1298.31 15.3945C1298.18 14.5859 1299.02 13.9675 1299.75 14.3378L1310.23 19.646C1310.63 19.8467 1311.11 19.7619 1311.41 19.4379L1319.82 10.4681C1320.4 9.84843 1321.44 10.1896 1321.54 11.0331L1322.84 21.8505C1322.9 22.3558 1323.33 22.735 1323.84 22.7315L1335.73 22.6486Z" fill="#1F1F1F"/>
<path d="M5.2575 48V16.512H9.2415V44.592H23.0175V48H5.2575ZM28.6013 48V16.512H46.7453V19.872H32.5853V29.76H44.5373V33.168H32.5853V44.592H47.2253V48H28.6013ZM60.4418 48V19.872H50.9378V16.512H73.9778V19.872H64.4738V48H60.4418ZM80.0801 27.312L79.3121 19.296L79.1681 14.88H83.3921L83.2481 19.296L82.4801 27.312H80.0801ZM99.8685 48.576C97.6605 48.576 95.6125 48.16 93.7245 47.328C91.8365 46.464 90.2045 45.328 88.8285 43.92L91.2285 41.136C92.3485 42.32 93.6605 43.28 95.1645 44.016C96.7005 44.72 98.2845 45.072 99.9165 45.072C101.997 45.072 103.613 44.608 104.765 43.68C105.917 42.72 106.493 41.472 106.493 39.936C106.493 38.336 105.997 37.184 105.005 36.48C104.013 35.744 102.765 35.04 101.261 34.368L96.7485 32.4C95.2445 31.792 93.8045 30.864 92.4285 29.616C91.0525 28.368 90.3645 26.592 90.3645 24.288C90.3645 21.888 91.2925 19.904 93.1485 18.336C95.0365 16.736 97.4045 15.936 100.253 15.936C102.109 15.936 103.837 16.304 105.437 17.04C107.069 17.744 108.445 18.672 109.565 19.824L107.405 22.416C106.445 21.488 105.373 20.768 104.189 20.256C103.037 19.712 101.725 19.44 100.253 19.44C98.4925 19.44 97.0685 19.856 95.9805 20.688C94.9245 21.52 94.3965 22.64 94.3965 24.048C94.3965 25.552 94.9565 26.672 96.0765 27.408C97.1965 28.144 98.3805 28.768 99.6285 29.28L104.093 31.2C105.917 32 107.453 33.024 108.701 34.272C109.949 35.488 110.573 37.264 110.573 39.6C110.573 42.096 109.613 44.224 107.693 45.984C105.805 47.712 103.197 48.576 99.8685 48.576ZM138.287 48.576C134.351 48.576 131.071 47.136 128.447 44.256C125.855 41.376 124.559 37.376 124.559 32.256C124.559 27.2 125.887 23.216 128.543 20.304C131.199 17.392 134.527 15.936 138.527 15.936C140.447 15.936 142.127 16.336 143.567 17.136C145.039 17.904 146.239 18.8 147.167 19.824L145.007 22.416C144.175 21.52 143.231 20.8 142.175 20.256C141.119 19.712 139.919 19.44 138.575 19.44C135.599 19.44 133.199 20.592 131.375 22.896C129.583 25.168 128.687 28.256 128.687 32.16C128.687 36.128 129.567 39.28 131.327 41.616C133.087 43.92 135.455 45.072 138.431 45.072C139.935 45.072 141.279 44.768 142.463 44.16C143.647 43.52 144.735 42.64 145.727 41.52L147.935 44.016C146.687 45.456 145.279 46.576 143.711 47.376C142.143 48.176 140.335 48.576 138.287 48.576ZM164.014 48.576C160.046 48.576 156.814 47.104 154.318 44.16C151.822 41.184 150.574 37.168 150.574 32.112C150.574 27.088 151.822 23.136 154.318 20.256C156.814 17.376 160.046 15.936 164.014 15.936C167.982 15.936 171.214 17.376 173.71 20.256C176.238 23.136 177.502 27.088 177.502 32.112C177.502 37.168 176.238 41.184 173.71 44.16C171.214 47.104 167.982 48.576 164.014 48.576ZM164.014 45.072C166.83 45.072 169.086 43.904 170.782 41.568C172.478 39.2 173.326 36.048 173.326 32.112C173.326 28.208 172.478 25.12 170.782 22.848C169.086 20.576 166.83 19.44 164.014 19.44C161.198 19.44 158.942 20.576 157.246 22.848C155.55 25.12 154.702 28.208 154.702 32.112C154.702 36.048 155.55 39.2 157.246 41.568C158.942 43.904 161.198 45.072 164.014 45.072ZM184.273 48V16.512H188.401L199.777 36.288L203.185 42.816H203.377C203.281 41.216 203.169 39.568 203.041 37.872C202.945 36.144 202.897 34.448 202.897 32.784V16.512H206.689V48H202.561L191.137 28.176L187.729 21.696H187.537C187.665 23.296 187.777 24.928 187.873 26.592C188.001 28.224 188.065 29.872 188.065 31.536V48H184.273ZM215.351 48V16.512H219.479L230.855 36.288L234.263 42.816H234.455C234.359 41.216 234.247 39.568 234.119 37.872C234.023 36.144 233.975 34.448 233.975 32.784V16.512H237.767V48H233.639L222.215 28.176L218.807 21.696H218.615C218.743 23.296 218.855 24.928 218.951 26.592C219.079 28.224 219.143 29.872 219.143 31.536V48H215.351ZM246.429 48V16.512H264.573V19.872H250.413V29.76H262.365V33.168H250.413V44.592H265.053V48H246.429ZM283.646 48.576C279.71 48.576 276.43 47.136 273.806 44.256C271.214 41.376 269.918 37.376 269.918 32.256C269.918 27.2 271.246 23.216 273.902 20.304C276.558 17.392 279.886 15.936 283.886 15.936C285.806 15.936 287.486 16.336 288.926 17.136C290.398 17.904 291.598 18.8 292.526 19.824L290.366 22.416C289.534 21.52 288.59 20.8 287.534 20.256C286.478 19.712 285.278 19.44 283.934 19.44C280.958 19.44 278.558 20.592 276.734 22.896C274.942 25.168 274.046 28.256 274.046 32.16C274.046 36.128 274.926 39.28 276.686 41.616C278.446 43.92 280.814 45.072 283.79 45.072C285.294 45.072 286.638 44.768 287.822 44.16C289.006 43.52 290.094 42.64 291.086 41.52L293.294 44.016C292.046 45.456 290.638 46.576 289.07 47.376C287.502 48.176 285.694 48.576 283.646 48.576ZM304.848 48V19.872H295.344V16.512H318.384V19.872H308.88V48H304.848ZM339.088 30.384L337.6 35.184H347.056L345.568 30.384C344.992 28.624 344.448 26.88 343.936 25.152C343.424 23.392 342.912 21.6 342.4 19.776H342.208C341.728 21.6 341.232 23.392 340.72 25.152C340.208 26.88 339.664 28.624 339.088 30.384ZM351.04 48L348.064 38.4H336.592L333.568 48H329.488L340.144 16.512H344.656L355.312 48H351.04ZM359.773 48V16.512H363.901L375.277 36.288L378.685 42.816H378.877C378.781 41.216 378.669 39.568 378.541 37.872C378.445 36.144 378.397 34.448 378.397 32.784V16.512H382.189V48H378.061L366.637 28.176L363.229 21.696H363.037C363.165 23.296 363.277 24.928 363.373 26.592C363.501 28.224 363.565 29.872 363.565 31.536V48H359.773ZM390.851 48V16.512H398.723C403.587 16.512 407.283 17.872 409.811 20.592C412.339 23.28 413.603 27.12 413.603 32.112C413.603 37.136 412.339 41.04 409.811 43.824C407.283 46.608 403.651 48 398.915 48H390.851ZM394.835 44.736H398.435C402.115 44.736 404.867 43.632 406.691 41.424C408.547 39.216 409.475 36.112 409.475 32.112C409.475 28.144 408.547 25.104 406.691 22.992C404.867 20.848 402.115 19.776 398.435 19.776H394.835V44.736ZM441.896 48.576C437.96 48.576 434.68 47.136 432.056 44.256C429.464 41.376 428.168 37.376 428.168 32.256C428.168 27.2 429.496 23.216 432.152 20.304C434.808 17.392 438.136 15.936 442.136 15.936C444.056 15.936 445.736 16.336 447.176 17.136C448.648 17.904 449.848 18.8 450.776 19.824L448.616 22.416C447.784 21.52 446.84 20.8 445.784 20.256C444.728 19.712 443.528 19.44 442.184 19.44C439.208 19.44 436.808 20.592 434.984 22.896C433.192 25.168 432.296 28.256 432.296 32.16C432.296 36.128 433.176 39.28 434.936 41.616C436.696 43.92 439.064 45.072 442.04 45.072C443.544 45.072 444.888 44.768 446.072 44.16C447.256 43.52 448.344 42.64 449.336 41.52L451.544 44.016C450.296 45.456 448.888 46.576 447.32 47.376C445.752 48.176 443.944 48.576 441.896 48.576ZM461.398 31.44H466.678C471.766 31.44 474.31 29.408 474.31 25.344C474.31 23.296 473.654 21.856 472.342 21.024C471.03 20.16 469.142 19.728 466.678 19.728H461.398V31.44ZM461.398 48H457.414V16.512H467.254C470.486 16.512 473.126 17.168 475.174 18.48C477.254 19.792 478.294 22.08 478.294 25.344C478.294 27.808 477.638 29.776 476.326 31.248C475.046 32.72 473.334 33.728 471.19 34.272L479.206 48H474.694L467.11 34.704H461.398V48ZM484.742 48V16.512H502.886V19.872H488.726V29.76H500.678V33.168H488.726V44.592H503.366V48H484.742ZM515.478 30.384L513.99 35.184H523.446L521.958 30.384C521.382 28.624 520.838 26.88 520.326 25.152C519.814 23.392 519.302 21.6 518.79 19.776H518.598C518.118 21.6 517.622 23.392 517.11 25.152C516.598 26.88 516.054 28.624 515.478 30.384ZM527.43 48L524.454 38.4H512.982L509.958 48H505.878L516.534 16.512H521.046L531.702 48H527.43ZM540.067 48V19.872H530.563V16.512H553.603V19.872H544.099V48H540.067ZM559.273 48V16.512H577.417V19.872H563.257V29.76H575.209V33.168H563.257V44.592H577.897V48H559.273ZM602.931 48.576C600.723 48.576 598.675 48.16 596.787 47.328C594.899 46.464 593.267 45.328 591.891 43.92L594.291 41.136C595.411 42.32 596.723 43.28 598.227 44.016C599.763 44.72 601.347 45.072 602.979 45.072C605.059 45.072 606.675 44.608 607.827 43.68C608.979 42.72 609.555 41.472 609.555 39.936C609.555 38.336 609.059 37.184 608.067 36.48C607.075 35.744 605.827 35.04 604.323 34.368L599.811 32.4C598.307 31.792 596.867 30.864 595.491 29.616C594.115 28.368 593.427 26.592 593.427 24.288C593.427 21.888 594.355 19.904 596.211 18.336C598.099 16.736 600.467 15.936 603.315 15.936C605.171 15.936 606.899 16.304 608.499 17.04C610.131 17.744 611.507 18.672 612.627 19.824L610.467 22.416C609.507 21.488 608.435 20.768 607.251 20.256C606.099 19.712 604.787 19.44 603.315 19.44C601.555 19.44 600.131 19.856 599.043 20.688C597.987 21.52 597.459 22.64 597.459 24.048C597.459 25.552 598.019 26.672 599.139 27.408C600.259 28.144 601.443 28.768 602.691 29.28L607.155 31.2C608.979 32 610.515 33.024 611.763 34.272C613.011 35.488 613.635 37.264 613.635 39.6C613.635 42.096 612.675 44.224 610.755 45.984C608.867 47.712 606.259 48.576 602.931 48.576ZM631.452 48.576C627.484 48.576 624.252 47.104 621.756 44.16C619.26 41.184 618.012 37.168 618.012 32.112C618.012 27.088 619.26 23.136 621.756 20.256C624.252 17.376 627.484 15.936 631.452 15.936C635.42 15.936 638.652 17.376 641.148 20.256C643.676 23.136 644.94 27.088 644.94 32.112C644.94 37.168 643.676 41.184 641.148 44.16C638.652 47.104 635.42 48.576 631.452 48.576ZM631.452 45.072C634.268 45.072 636.524 43.904 638.22 41.568C639.916 39.2 640.764 36.048 640.764 32.112C640.764 28.208 639.916 25.12 638.22 22.848C636.524 20.576 634.268 19.44 631.452 19.44C628.636 19.44 626.38 20.576 624.684 22.848C622.988 25.12 622.14 28.208 622.14 32.112C622.14 36.048 622.988 39.2 624.684 41.568C626.38 43.904 628.636 45.072 631.452 45.072ZM651.711 48V16.512H656.511L662.559 33.312C662.943 34.4 663.311 35.504 663.663 36.624C664.047 37.712 664.431 38.8 664.815 39.888H665.007C665.391 38.8 665.743 37.712 666.063 36.624C666.415 35.504 666.783 34.4 667.167 33.312L673.119 16.512H677.967V48H674.223V30.672C674.223 29.296 674.287 27.744 674.415 26.016C674.543 24.288 674.655 22.736 674.751 21.36H674.559L672.063 28.512L666.111 44.832H663.471L657.519 28.512L655.023 21.36H654.831C654.927 22.736 655.023 24.288 655.119 26.016C655.247 27.744 655.311 29.296 655.311 30.672V48H651.711ZM686.586 48V16.512H704.73V19.872H690.57V29.76H702.522V33.168H690.57V44.592H705.21V48H686.586ZM718.426 48V19.872H708.922V16.512H731.962V19.872H722.458V48H718.426ZM737.633 48V16.512H741.617V29.712H756.257V16.512H760.289V48H756.257V33.168H741.617V48H737.633ZM768.945 48V16.512H772.929V48H768.945ZM781.554 48V16.512H785.682L797.058 36.288L800.466 42.816H800.658C800.562 41.216 800.45 39.568 800.322 37.872C800.226 36.144 800.178 34.448 800.178 32.784V16.512H803.97V48H799.842L788.418 28.176L785.01 21.696H784.818C784.946 23.296 785.058 24.928 785.154 26.592C785.282 28.224 785.346 29.872 785.346 31.536V48H781.554ZM825.017 48.576C820.857 48.576 817.449 47.136 814.793 44.256C812.137 41.376 810.809 37.376 810.809 32.256C810.809 27.2 812.169 23.216 814.889 20.304C817.609 17.392 821.065 15.936 825.257 15.936C827.433 15.936 829.257 16.352 830.729 17.184C832.233 17.984 833.433 18.864 834.329 19.824L832.121 22.416C831.321 21.616 830.377 20.928 829.289 20.352C828.233 19.744 826.921 19.44 825.353 19.44C822.185 19.44 819.657 20.592 817.769 22.896C815.881 25.168 814.937 28.256 814.937 32.16C814.937 36.128 815.833 39.28 817.625 41.616C819.449 43.92 822.041 45.072 825.401 45.072C827.833 45.072 829.721 44.448 831.065 43.2V34.992H824.393V31.68H834.713V44.928C833.689 45.984 832.345 46.864 830.681 47.568C829.017 48.24 827.129 48.576 825.017 48.576ZM857.291 30.384L855.803 35.184H865.259L863.771 30.384C863.195 28.624 862.651 26.88 862.139 25.152C861.627 23.392 861.115 21.6 860.603 19.776H860.411C859.931 21.6 859.435 23.392 858.923 25.152C858.411 26.88 857.867 28.624 857.291 30.384ZM869.243 48L866.267 38.4H854.795L851.771 48H847.691L858.347 16.512H862.859L873.515 48H869.243ZM877.976 48V16.512H882.776L888.824 33.312C889.208 34.4 889.576 35.504 889.928 36.624C890.312 37.712 890.696 38.8 891.08 39.888H891.272C891.656 38.8 892.008 37.712 892.328 36.624C892.68 35.504 893.048 34.4 893.432 33.312L899.384 16.512H904.232V48H900.488V30.672C900.488 29.296 900.552 27.744 900.68 26.016C900.808 24.288 900.92 22.736 901.016 21.36H900.824L898.328 28.512L892.376 44.832H889.736L883.784 28.512L881.288 21.36H881.096C881.192 22.736 881.288 24.288 881.384 26.016C881.512 27.744 881.576 29.296 881.576 30.672V48H877.976ZM918.275 30.384L916.787 35.184H926.243L924.755 30.384C924.179 28.624 923.635 26.88 923.123 25.152C922.611 23.392 922.099 21.6 921.587 19.776H921.395C920.915 21.6 920.419 23.392 919.907 25.152C919.395 26.88 918.851 28.624 918.275 30.384ZM930.227 48L927.251 38.4H915.779L912.755 48H908.675L919.331 16.512H923.843L934.499 48H930.227ZM936.426 48V45.6L952.986 19.872H937.914V16.512H957.978V18.864L941.37 44.592H958.122V48H936.426ZM964.461 48V16.512H968.445V48H964.461ZM977.07 48V16.512H981.198L992.574 36.288L995.982 42.816H996.174C996.078 41.216 995.966 39.568 995.838 37.872C995.742 36.144 995.694 34.448 995.694 32.784V16.512H999.486V48H995.358L983.934 28.176L980.526 21.696H980.334C980.462 23.296 980.574 24.928 980.67 26.592C980.798 28.224 980.862 29.872 980.862 31.536V48H977.07ZM1020.53 48.576C1016.37 48.576 1012.96 47.136 1010.31 44.256C1007.65 41.376 1006.32 37.376 1006.32 32.256C1006.32 27.2 1007.68 23.216 1010.4 20.304C1013.12 17.392 1016.58 15.936 1020.77 15.936C1022.95 15.936 1024.77 16.352 1026.24 17.184C1027.75 17.984 1028.95 18.864 1029.84 19.824L1027.64 22.416C1026.84 21.616 1025.89 20.928 1024.8 20.352C1023.75 19.744 1022.44 19.44 1020.87 19.44C1017.7 19.44 1015.17 20.592 1013.28 22.896C1011.4 25.168 1010.45 28.256 1010.45 32.16C1010.45 36.128 1011.35 39.28 1013.14 41.616C1014.96 43.92 1017.56 45.072 1020.92 45.072C1023.35 45.072 1025.24 44.448 1026.58 43.2V34.992H1019.91V31.68H1030.23V44.928C1029.2 45.984 1027.86 46.864 1026.2 47.568C1024.53 48.24 1022.64 48.576 1020.53 48.576ZM1053.91 48V19.872H1044.41V16.512H1067.45V19.872H1057.94V48H1053.91ZM1083.56 48.576C1079.59 48.576 1076.36 47.104 1073.87 44.16C1071.37 41.184 1070.12 37.168 1070.12 32.112C1070.12 27.088 1071.37 23.136 1073.87 20.256C1076.36 17.376 1079.59 15.936 1083.56 15.936C1087.53 15.936 1090.76 17.376 1093.26 20.256C1095.79 23.136 1097.05 27.088 1097.05 32.112C1097.05 37.168 1095.79 41.184 1093.26 44.16C1090.76 47.104 1087.53 48.576 1083.56 48.576ZM1083.56 45.072C1086.38 45.072 1088.63 43.904 1090.33 41.568C1092.03 39.2 1092.87 36.048 1092.87 32.112C1092.87 28.208 1092.03 25.12 1090.33 22.848C1088.63 20.576 1086.38 19.44 1083.56 19.44C1080.75 19.44 1078.49 20.576 1076.79 22.848C1075.1 25.12 1074.25 28.208 1074.25 32.112C1074.25 36.048 1075.1 39.2 1076.79 41.568C1078.49 43.904 1080.75 45.072 1083.56 45.072ZM1116.2 48.576C1112.04 48.576 1108.64 47.136 1105.98 44.256C1103.32 41.376 1102 37.376 1102 32.256C1102 27.2 1103.36 23.216 1106.08 20.304C1108.8 17.392 1112.25 15.936 1116.44 15.936C1118.62 15.936 1120.44 16.352 1121.92 17.184C1123.42 17.984 1124.62 18.864 1125.52 19.824L1123.31 22.416C1122.51 21.616 1121.56 20.928 1120.48 20.352C1119.42 19.744 1118.11 19.44 1116.54 19.44C1113.37 19.44 1110.84 20.592 1108.96 22.896C1107.07 25.168 1106.12 28.256 1106.12 32.16C1106.12 36.128 1107.02 39.28 1108.81 41.616C1110.64 43.92 1113.23 45.072 1116.59 45.072C1119.02 45.072 1120.91 44.448 1122.25 43.2V34.992H1115.58V31.68H1125.9V44.928C1124.88 45.984 1123.53 46.864 1121.87 47.568C1120.2 48.24 1118.32 48.576 1116.2 48.576ZM1133.45 48V16.512H1151.59V19.872H1137.43V29.76H1149.38V33.168H1137.43V44.592H1152.07V48H1133.45ZM1165.29 48V19.872H1155.78V16.512H1178.82V19.872H1169.32V48H1165.29ZM1184.49 48V16.512H1188.48V29.712H1203.12V16.512H1207.15V48H1203.12V33.168H1188.48V48H1184.49ZM1215.8 48V16.512H1233.95V19.872H1219.79V29.76H1231.74V33.168H1219.79V44.592H1234.43V48H1215.8ZM1245.1 31.44H1250.38C1255.47 31.44 1258.01 29.408 1258.01 25.344C1258.01 23.296 1257.36 21.856 1256.04 21.024C1254.73 20.16 1252.84 19.728 1250.38 19.728H1245.1V31.44ZM1245.1 48H1241.12V16.512H1250.96C1254.19 16.512 1256.83 17.168 1258.88 18.48C1260.96 19.792 1262 22.08 1262 25.344C1262 27.808 1261.34 29.776 1260.03 31.248C1258.75 32.72 1257.04 33.728 1254.89 34.272L1262.91 48H1258.4L1250.81 34.704H1245.1V48ZM1269.69 38.496L1269.17 20.352L1269.07 15.84H1273.05L1272.96 20.352L1272.43 38.496H1269.69ZM1271.09 48.576C1270.29 48.576 1269.6 48.304 1269.02 47.76C1268.48 47.184 1268.21 46.464 1268.21 45.6C1268.21 44.704 1268.48 43.968 1269.02 43.392C1269.6 42.816 1270.29 42.528 1271.09 42.528C1271.85 42.528 1272.51 42.816 1273.05 43.392C1273.63 43.968 1273.92 44.704 1273.92 45.6C1273.92 46.464 1273.63 47.184 1273.05 47.76C1272.51 48.304 1271.85 48.576 1271.09 48.576Z" fill="#1F1F1F"/>
</svg>
