<svg width="654" height="529" viewBox="0 0 654 529" fill="none" xmlns="http://www.w3.org/2000/svg">
<path d="M447.223 1C593.159 46.9718 712.507 143.877 620.999 392.587C529.49 641.297 179.364 488.716 6 388.213C65.4752 399.919 132.543 0.999257 447.223 1Z" fill="#EB82A6" stroke="#231F20" stroke-width="2" stroke-miterlimit="10"/>
<path d="M435.408 175.902C451.768 157.798 442.493 121.607 414.691 95.0663C386.888 68.5258 351.087 61.6859 334.727 79.7899C318.367 97.894 327.645 134.087 355.447 160.627C383.249 187.167 419.049 194.006 435.408 175.902Z" fill="#F5BDCA"/>
<path d="M466.094 142.295C476.904 130.332 472.038 107.622 455.223 91.5707C438.408 75.5192 416.013 72.2042 405.203 84.1672C394.392 96.1303 399.261 118.841 416.075 134.893C432.89 150.944 455.284 154.258 466.094 142.295Z" fill="#FFD8E1"/>
<path d="M399.386 465.873C591.178 430.956 682.953 196.645 601.172 408.818C519.39 620.991 206.484 490.825 51.5488 405.087C104.702 415.073 123.46 485.776 399.386 465.873Z" fill="#DB648C"/>
</svg>
