<svg width="246" height="198" viewBox="0 0 246 198" fill="none" xmlns="http://www.w3.org/2000/svg">
<path d="M151.574 44C199.392 57.3065 238.499 85.3556 208.514 157.345C178.53 229.334 63.8055 185.169 7 156.079C26.488 159.467 48.4638 43.9998 151.574 44Z" fill="#EB82A6" stroke="#231F20" stroke-width="2" stroke-miterlimit="10"/>
<path d="M147.703 94.6253C153.063 89.3851 150.024 78.9096 140.914 71.2275C131.804 63.5454 120.073 61.5656 114.713 66.8058C109.352 72.046 112.392 82.5219 121.502 90.204C130.612 97.8861 142.342 99.8655 147.703 94.6253Z" fill="#F5BDCA"/>
<path d="M157.757 84.8977C161.3 81.435 159.705 74.8616 154.195 70.2155C148.686 65.5694 141.347 64.6099 137.805 68.0726C134.263 71.5353 135.858 78.1089 141.368 82.755C146.877 87.4011 154.215 88.3604 157.757 84.8977Z" fill="#FFD8E1"/>
<path d="M135.901 178.557C198.745 168.451 228.816 100.629 202.02 162.043C175.223 223.456 72.6937 185.779 21.9268 160.963C39.3431 163.853 45.4898 184.318 135.901 178.557Z" fill="#DB648C"/>
<path d="M147.801 16.833L157.648 1.82304L167.495 16.833C172.937 25.128 183.257 28.7546 192.692 25.6872L213.472 18.9311L210.638 30.8835C207.923 42.3365 214.703 53.898 226.024 57.1193L242.95 61.9355L231.23 69.8163C220.897 76.7637 218.384 90.8935 225.687 100.977L232.739 110.714L212.079 110.344C201.32 110.151 192.001 117.769 190.05 128.351L187.393 142.758L170.66 130.484C162.915 124.803 152.381 124.803 144.636 130.484L127.902 142.758L125.246 128.351C123.295 117.769 113.976 110.151 103.217 110.344L82.5565 110.714L89.6083 100.977C96.9115 90.8935 94.3985 76.7637 84.0662 69.8163L72.3458 61.9354L89.2719 57.1193C100.593 53.898 107.373 42.3365 104.658 30.8835L101.824 18.9311L122.604 25.6872C132.038 28.7546 142.359 25.128 147.801 16.833Z" fill="white" stroke="black" stroke-width="2"/>
</svg>
