<svg width="85" height="66" viewBox="0 0 85 66" fill="none" xmlns="http://www.w3.org/2000/svg">
<path d="M0 0H39V30H0V0Z" fill="#1F1F1F"/>
<path d="M17.9999 44.4997C21.4999 37.4997 19.9999 30.0011 19.9999 30.0011L39 30C39 30 39.2557 40.7556 38.4999 46.4997C35.9999 65.4996 8.99994 66 8.99994 66V47.9996C8.99994 47.9996 15.6978 49.104 17.9999 44.4997Z" fill="#1F1F1F"/>
<path d="M45 0H84V30H45V0Z" fill="#1F1F1F"/>
<path d="M62.9999 44.4997C66.4999 37.4997 64.9999 30.0011 64.9999 30.0011L84 30C84 30 84.2557 40.7556 83.4999 46.4997C80.9999 65.4996 53.9999 66 53.9999 66V47.9996C53.9999 47.9996 60.6978 49.104 62.9999 44.4997Z" fill="#1F1F1F"/>
</svg>
