<svg width="58" height="58" viewBox="0 0 58 58" fill="none" xmlns="http://www.w3.org/2000/svg">
<path d="M29 1.79112L35.6059 11.6073L35.9763 12.1577L36.6274 12.0304L48.2396 9.76042L45.9696 21.3726L45.8423 22.0237L46.3927 22.3941L56.2089 29L46.3927 35.6059L45.8423 35.9763L45.9696 36.6274L48.2396 48.2396L36.6274 45.9696L35.9763 45.8423L35.6059 46.3927L29 56.2089L22.3941 46.3927L22.0237 45.8423L21.3726 45.9696L9.76042 48.2396L12.0304 36.6274L12.1577 35.9763L11.6073 35.6059L1.79112 29L11.6073 22.3941L12.1577 22.0237L12.0304 21.3726L9.76042 9.76042L21.3726 12.0304L22.0237 12.1577L22.3941 11.6073L29 1.79112Z" stroke="#525252" stroke-width="2"/>
</svg>
