<svg width="50" height="50" viewBox="0 0 50 50" fill="none" xmlns="http://www.w3.org/2000/svg">
<path fill-rule="evenodd" clip-rule="evenodd" d="M50 25C50 38.8071 38.8071 50 25 50C11.1929 50 0 38.8071 0 25C0 11.1929 11.1929 0 25 0C38.8071 0 50 11.1929 50 25ZM28.6932 30.9796C29.3565 30.9796 30.7851 30.4184 31.8055 29.2959C31.8565 29.9082 32.0095 30.4184 32.3157 30.6224C32.4177 30.7755 32.6218 30.8265 32.7748 30.8265C32.9789 30.8265 33.2851 30.7245 33.5912 30.5714C34.3565 30.1122 35.3769 29.1429 36.3463 27.7653H36.7034C37.1116 27.7653 37.5197 27.6122 37.9279 27.3571C37.7748 27.8163 37.7238 28.3265 37.7748 28.7857C37.9279 29.9082 38.8973 30.7755 39.8667 30.7755C40.4789 30.7755 41.0401 30.5204 41.4483 29.9592C41.5504 30.6225 42.0095 31.3878 43.132 31.8469C43.183 31.898 43.2851 31.898 43.3361 31.898C43.5402 31.898 43.6422 31.7449 43.6422 31.5918C43.6422 31.5408 43.5912 31.4388 43.4891 31.3367C43.234 31.0816 42.9789 30.6735 42.8769 30.0612C42.8769 29.8061 42.8769 29.398 42.9789 28.9898L42.979 28.9897C43.183 27.9694 43.234 27.7143 43.234 27.5612C43.234 27.3061 43.03 27.2041 42.8259 27.2041C42.3667 27.2041 41.7544 27.6633 41.6014 28.2755C41.3463 29.1939 40.683 29.8571 40.2238 29.8571C39.6626 29.8571 39.3565 29.2449 39.3055 28.6327C39.1524 27.051 40.1218 25.1633 41.5504 25.1633C41.9585 25.1633 42.4177 25.3673 42.4687 25.7755C42.4999 26.1806 42.2456 26.3002 42.0545 26.3901C41.9327 26.4474 41.8366 26.4925 41.8565 26.5918C41.8565 26.8469 42.3667 26.949 42.6728 26.949C42.9789 26.949 43.9483 26.6939 43.7953 25.6225C43.6932 24.7551 42.8259 24.3469 41.7544 24.3469C40.5299 24.3469 39.4585 24.9592 38.7442 25.8265C38.6422 25.8776 38.5401 25.9796 38.4381 26.0816C38.183 26.3878 37.7748 26.6429 37.2136 26.6429H37.0095C37.3667 25.9286 37.6218 25.2143 37.6218 24.551C37.6218 23.5306 37.0095 23.0204 36.2953 23.0204C35.3769 23.0204 34.4585 23.8367 34.4585 25.3673C34.4585 26.2857 34.8157 27.051 35.4789 27.4592C34.7646 28.6837 33.7442 29.6531 33.5912 29.6531C33.4891 29.6531 33.4381 29.602 33.4381 29.5C33.3361 29.0918 33.234 28.3265 33.234 27.8163C33.234 26.949 33.4381 26.0816 33.7442 25.1122C33.7953 25.0102 33.7953 24.9082 33.7953 24.8061C33.7953 24.551 33.6422 24.398 33.3871 24.398C32.9279 24.398 32.2136 24.9082 32.0606 25.4694C31.8565 26.0306 31.8055 26.7449 31.8055 27.6633V28.1735C30.9381 29.3469 29.8667 29.7551 29.5095 29.7551C29.1014 29.7551 28.9993 29.449 29.0504 29.1939C29.2544 28.1225 29.6116 26.8469 29.9177 26.0306C29.9281 25.9892 29.9384 25.9482 29.9486 25.9079C30.0389 25.5515 30.1166 25.2446 30.0708 25.0612C30.0197 24.7041 29.7136 24.5 29.3565 24.5C28.4891 24.5 27.0606 25.4184 26.1422 26.6429L26.3973 25.2653V24.9592C26.3463 24.7041 26.1932 24.602 25.9891 24.602C24.9687 24.602 24.7646 25.1633 24.6626 25.6735C24.6626 25.7755 24.3565 27.3571 24.1014 28.6327C23.2851 29.3469 22.4687 29.8061 22.2136 29.8061C21.9075 29.8061 21.8055 29.551 21.8055 29.398C21.8055 29.2693 21.9497 28.5637 22.026 28.1905C22.0404 28.1198 22.0524 28.0611 22.0606 28.0204V27.7143C22.0606 27.4592 21.9075 27.3571 21.6524 27.3571C21.1932 27.3571 20.581 27.7653 20.4279 28.4286C20.2238 29.3469 19.5606 30.0102 19.1014 30.0102C18.5912 30.0102 18.234 29.398 18.183 28.7857C18.03 27.4592 18.8973 25.3163 20.4279 25.3163C20.8361 25.3163 21.2953 25.4694 21.3463 25.8776C21.407 26.2721 21.1789 26.3778 20.9948 26.4631C20.8694 26.5212 20.7644 26.5698 20.7851 26.6939C20.8361 26.949 21.2953 27.051 21.6014 27.051C21.9585 27.051 22.8769 26.8469 22.7238 25.7755C22.6218 24.9082 21.7544 24.5 20.683 24.5C18.234 24.5 16.5504 26.949 16.7034 28.8878C16.0912 29.6531 15.4279 30.1122 14.3055 30.6735C13.6932 30.9796 12.9279 31.1837 12.2646 31.1837C10.2238 31.1837 9.20342 29.2959 8.99934 27.6633C8.48914 23.4796 12.1626 17.7143 14.8157 17.7143C15.4279 17.7143 15.9381 18.2245 16.0402 19.0408C16.1932 20.3163 16.1932 21.2347 14.8667 22.3061C14.7136 22.4082 14.7136 22.6122 14.7646 22.7143C14.8667 22.9184 15.2238 22.9184 15.9381 22.5612C17.3157 21.898 17.8259 20.8265 17.6728 19.551C17.5197 18.1735 16.2953 17 14.6626 17C13.8463 17 12.9789 17.2551 12.2136 17.7143C8.79526 19.7551 6.60138 24.5 7.06057 28.0714C7.21363 29.1939 7.67281 30.4694 8.59118 31.2857C9.1524 31.8469 10.2749 32.5102 11.5504 32.5102C12.9279 32.5102 14.1014 31.949 15.1728 31.2857C15.8871 30.8265 16.4993 30.2653 17.0095 29.7041C17.3667 30.4694 18.081 30.9796 18.8463 30.9796C19.4585 30.9796 20.0197 30.6735 20.4279 30.1122C20.53 30.6225 20.8871 30.9796 21.5504 30.9796C22.0095 30.9796 23.03 30.5204 23.9483 29.8061L23.8463 30.3163V30.6224C23.8973 30.8776 24.0504 30.9796 24.2544 30.9796C24.7136 30.9796 25.3259 30.5714 25.4789 29.9082L25.683 28.9388C25.9381 27.7653 27.6728 25.9796 28.183 25.9796C28.234 25.9796 28.2851 26.0306 28.2851 26.1327C28.2851 26.2213 28.2173 26.4023 28.1182 26.6671C27.932 27.1645 27.6352 27.9577 27.4687 28.9898C27.4177 29.2449 27.3667 29.551 27.4177 29.8061C27.5197 30.5204 27.9279 30.9796 28.6932 30.9796ZM35.9381 26.3367C35.581 25.9286 35.2748 25.3163 35.2748 24.7041C35.2748 24.398 35.3769 23.9898 35.683 23.9898C35.8871 23.9898 36.1932 24.3469 36.1932 25.1122C36.1932 25.5204 36.0912 25.9286 35.9381 26.3367Z" fill="black"/>
</svg>
