<svg width="50" height="50" viewBox="0 0 50 50" fill="none" xmlns="http://www.w3.org/2000/svg">
<path fill-rule="evenodd" clip-rule="evenodd" d="M50 25C50 38.8071 38.8086 50 25 50C11.1914 50 0 38.8071 0 25C0 11.1929 11.1914 0 25 0C38.8086 0 50 11.1929 50 25ZM28.6914 30.9795C29.3555 30.9795 30.7852 30.4185 31.8047 29.2959C31.8555 29.9082 32.0078 30.4185 32.3164 30.6226C32.418 30.7754 32.6211 30.8267 32.7734 30.8267C32.9102 30.8267 33.0859 30.7827 33.2773 30.71C33.3789 30.6714 33.4844 30.6245 33.5898 30.5713C34.3555 30.1123 35.375 29.1431 36.3477 27.7651H36.7031C37.1133 27.7651 37.5195 27.6123 37.9297 27.3569C37.7734 27.8164 37.7227 28.3267 37.7734 28.7856C37.9297 29.9082 38.8984 30.7754 39.8672 30.7754C40.4805 30.7754 41.0391 30.5205 41.4492 29.959C41.5508 30.6226 42.0078 31.3877 43.1328 31.8472C43.1836 31.8979 43.2852 31.8979 43.3359 31.8979C43.5391 31.8979 43.6406 31.7451 43.6406 31.5918C43.6406 31.541 43.5898 31.439 43.4883 31.3369C43.2344 31.0815 42.9805 30.6733 42.875 30.061C42.875 29.9434 42.875 29.7935 42.8867 29.626C42.8984 29.4302 42.9219 29.21 42.9805 28.9897C43.1836 27.9692 43.2344 27.7144 43.2344 27.561C43.2344 27.4048 43.1562 27.3062 43.0469 27.2529C42.9805 27.2192 42.9023 27.2041 42.8242 27.2041C42.3672 27.2041 41.7539 27.6631 41.6016 28.2754C41.3477 29.1938 40.6836 29.8569 40.2227 29.8569C39.6641 29.8569 39.3555 29.2451 39.3047 28.6328C39.1523 27.0508 40.1211 25.1631 41.5508 25.1631C41.957 25.1631 42.418 25.3672 42.4688 25.7754C42.5078 26.3086 42.0547 26.3477 41.9023 26.4746C41.8633 26.5054 41.8438 26.5415 41.8555 26.5918C41.8555 26.8472 42.3672 26.9492 42.6719 26.9492C42.8359 26.9492 43.1875 26.8765 43.457 26.646C43.6953 26.4448 43.8672 26.1226 43.7969 25.6226C43.6914 24.7549 42.8242 24.3472 41.7539 24.3472C41.1055 24.3472 40.5 24.519 39.9688 24.8096C39.4961 25.0674 39.082 25.4189 38.7461 25.8267C38.6406 25.8774 38.5391 25.9795 38.4375 26.0815C38.1836 26.3877 37.7734 26.6431 37.2148 26.6431H37.0078C37.3672 25.9287 37.6211 25.2144 37.6211 24.5508C37.6211 23.5308 37.0078 23.0205 36.2969 23.0205C35.375 23.0205 34.457 23.8369 34.457 25.3672C34.457 26.2856 34.8164 27.0508 35.4805 27.459C34.9805 28.314 34.3359 29.0444 33.9336 29.4077C33.7617 29.5645 33.6367 29.6528 33.5898 29.6528C33.5352 29.6528 33.4961 29.6382 33.4727 29.6089C33.4492 29.5835 33.4375 29.5474 33.4375 29.5C33.3359 29.0918 33.2344 28.3267 33.2344 27.8164C33.2344 26.9492 33.4375 26.0815 33.7461 25.1123C33.7773 25.0532 33.7891 24.9941 33.793 24.9351L33.7969 24.8062C33.7969 24.5508 33.6406 24.3979 33.3867 24.3979C32.9297 24.3979 32.2148 24.9082 32.0625 25.4692C31.8555 26.0308 31.8047 26.7451 31.8047 27.6631V28.1733C31.3594 28.7754 30.8594 29.1758 30.4336 29.4233C30.0273 29.6582 29.6836 29.7549 29.5078 29.7549C29.1016 29.7549 29 29.4492 29.0508 29.1938C29.2539 28.1226 29.6133 26.8472 29.918 26.0308C30.0195 25.6226 30.1211 25.2651 30.0703 25.061C30.0391 24.8491 29.9219 24.6909 29.7539 24.5977C29.6367 24.5337 29.5 24.5 29.3555 24.5C28.4883 24.5 27.0625 25.4185 26.1406 26.6431L26.3984 25.2651V24.959C26.3477 24.7041 26.1914 24.6021 25.9883 24.6021C24.9688 24.6021 24.7656 25.1631 24.6641 25.6733C24.6641 25.7754 24.3555 27.3569 24.1016 28.6328C23.2852 29.3472 22.4688 29.8062 22.2148 29.8062C21.9062 29.8062 21.8047 29.5508 21.8047 29.3979C21.8047 29.2451 22.0078 28.2754 22.0625 28.0205V27.7144C22.0625 27.459 21.9062 27.3569 21.6523 27.3569C21.1914 27.3569 20.582 27.7651 20.4297 28.4287C20.2227 29.3472 19.5625 30.0103 19.1016 30.0103C18.5898 30.0103 18.2344 29.3979 18.1836 28.7856C18.0312 27.459 18.8984 25.3164 20.4297 25.3164C20.8359 25.3164 21.2969 25.4692 21.3477 25.8774C21.3906 26.1699 21.2773 26.3037 21.1406 26.3882C20.9688 26.4951 20.7578 26.5225 20.7852 26.6938C20.8359 26.9492 21.2969 27.0508 21.6016 27.0508C21.957 27.0508 22.875 26.8472 22.7227 25.7754C22.6211 24.9082 21.7539 24.5 20.6836 24.5C18.2344 24.5 16.5508 26.9492 16.7031 28.8877C16.0898 29.6528 15.4297 30.1123 14.3047 30.6733C13.6914 30.9795 12.9297 31.1836 12.2656 31.1836C10.2227 31.1836 9.20312 29.2959 9 27.6631C8.48828 23.4795 12.1641 17.7144 14.8164 17.7144C15.4297 17.7144 15.9375 18.2246 16.0391 19.041C16.1914 20.3164 16.1914 21.2349 14.8672 22.3062C14.7148 22.4082 14.7148 22.6123 14.7656 22.7144C14.8672 22.9185 15.2227 22.9185 15.9375 22.561C17.3164 21.8979 17.8242 20.8267 17.6719 19.5508C17.5195 18.1733 16.2969 17 14.6641 17C14.1953 17 13.7109 17.0835 13.2383 17.2417C12.8867 17.3594 12.543 17.5181 12.2148 17.7144C8.79688 19.7549 6.60156 24.5 7.0625 28.0713C7.21484 29.1938 7.67188 30.4692 8.58984 31.2856C9.15234 31.8472 10.2734 32.5103 11.5508 32.5103C12.9297 32.5103 14.1016 31.9492 15.1719 31.2856C15.5938 31.0142 15.9805 30.7065 16.332 30.3843C16.5742 30.1621 16.8008 29.9331 17.0078 29.7041C17.3672 30.4692 18.082 30.9795 18.8477 30.9795C19.457 30.9795 20.0195 30.6733 20.4297 30.1123C20.5312 30.6226 20.8867 30.9795 21.5508 30.9795C21.8555 30.9795 22.4141 30.7744 23.0234 30.4253C23.3281 30.252 23.6445 30.043 23.9492 29.8062L23.8477 30.3164V30.6226C23.8984 30.8774 24.0508 30.9795 24.2539 30.9795C24.7148 30.9795 25.3242 30.5713 25.4805 29.9082L25.6836 28.939C25.8242 28.2852 26.4258 27.4414 27.0195 26.8218C27.4883 26.3296 27.957 25.9795 28.1836 25.9795C28.2109 25.9795 28.2383 25.9946 28.2578 26.0249C28.2734 26.0503 28.2852 26.0864 28.2852 26.1328C28.2852 26.3877 27.7227 27.4082 27.4688 28.9897C27.418 29.2451 27.3672 29.5508 27.418 29.8062C27.5195 30.5205 27.9297 30.9795 28.6914 30.9795ZM35.9375 26.3369C35.582 25.9287 35.2734 25.3164 35.2734 24.7041C35.2734 24.3979 35.375 23.9897 35.6836 23.9897C35.793 23.9897 35.9297 24.0913 36.0352 24.3018C36.125 24.4863 36.1914 24.7549 36.1914 25.1123C36.1914 25.5205 36.0898 25.9287 35.9375 26.3369Z" fill="white"/>
</svg>
