<svg width="52" height="51" viewBox="0 0 52 51" fill="none" xmlns="http://www.w3.org/2000/svg">
<path d="M25.147 1.4351C25.5071 0.655295 26.6149 0.655295 26.9665 1.43511L32.0855 12.7891C32.2832 13.2277 32.7666 13.461 33.2349 13.344L45.3591 10.3155C46.1918 10.1074 46.8778 10.9736 46.4857 11.738L40.778 22.8675C40.5575 23.2974 40.6743 23.8218 41.0558 24.1145L50.9312 31.6918C51.6095 32.2122 51.3571 33.2923 50.5167 33.4657L38.2802 35.9901C37.8075 36.0876 37.4699 36.5081 37.4772 36.9901L37.6677 49.4675C37.6807 50.3244 36.68 50.8051 36.024 50.2569L26.4731 42.2752C26.1042 41.9669 25.5664 41.9669 25.194 42.2752L15.5559 50.2569C14.894 50.8051 13.8985 50.3244 13.9209 49.4675L14.2477 36.9901C14.2603 36.5081 13.9273 36.0876 13.4556 35.9901L1.24679 33.4657C0.408258 33.2923 0.167641 32.2122 0.851606 31.6918L10.8099 24.1145C11.1946 23.8218 11.3171 23.2974 11.1013 22.8675L5.51518 11.738C5.1315 10.9736 5.82697 10.1074 6.6574 10.3155L18.7485 13.344C19.2155 13.461 19.7014 13.2277 19.9039 12.7891L25.147 1.4351Z" fill="#1F1F1F"/>
</svg>
