<svg width="48" height="48" viewBox="0 0 48 48" fill="none" xmlns="http://www.w3.org/2000/svg">
<g clip-path="url(#clip0_1522_100)">
<path fill-rule="evenodd" clip-rule="evenodd" d="M23.9993 1C18.3018 1.00296 12.791 3.02092 8.45252 6.69305C4.11399 10.3652 1.23059 15.452 0.317868 21.044C-0.594849 26.636 0.522633 32.3684 3.47052 37.2164C6.41841 42.0643 11.0045 45.7115 16.4086 47.5059C17.6009 47.7272 18.05 46.9883 18.05 46.36C18.05 45.7317 18.0261 43.91 18.0182 41.9184C11.3416 43.3608 9.93075 39.101 9.93075 39.101C8.84183 36.3349 7.26805 35.6078 7.26805 35.6078C5.09021 34.1299 7.43101 34.1576 7.43101 34.1576C9.84333 34.3275 11.1111 36.6194 11.1111 36.6194C13.2492 40.2667 16.7266 39.2116 18.0937 38.5952C18.3083 37.0501 18.9322 35.999 19.6198 35.4023C14.2864 34.8017 8.68286 32.7548 8.68286 23.6108C8.6498 21.2394 9.53482 18.9461 11.1548 17.2054C10.9084 16.6047 10.0857 14.1785 11.3893 10.8829C11.3893 10.8829 13.4042 10.2427 17.9904 13.3289C21.9241 12.2592 26.0745 12.2592 30.0083 13.3289C34.5905 10.2427 36.6014 10.8829 36.6014 10.8829C37.9089 14.1706 37.0862 16.5968 36.8398 17.2054C38.4649 18.9464 39.3518 21.2437 39.3157 23.6187C39.3157 32.7824 33.7002 34.8017 28.359 35.3905C29.2174 36.1333 29.9844 37.5836 29.9844 39.8122C29.9844 43.0051 29.9566 45.5736 29.9566 46.36C29.9566 46.9962 30.3898 47.7391 31.6059 47.5059C37.0107 45.7113 41.5972 42.0634 44.545 37.2147C47.4928 32.3659 48.6097 26.6326 47.696 21.0401C46.7822 15.4476 43.8974 10.3607 39.5574 6.68921C35.2175 3.01771 29.7055 1.00108 24.0072 1H23.9993Z" fill="black"/>
<path d="M9.08716 35.2643C9.0355 35.3828 8.84474 35.4184 8.68975 35.3354C8.53475 35.2524 8.41951 35.0983 8.47515 34.9758C8.53079 34.8533 8.71757 34.8217 8.87257 34.9047C9.02756 34.9876 9.14678 35.1457 9.08716 35.2643Z" fill="black"/>
<path d="M10.0625 36.3428C9.98016 36.384 9.88599 36.3955 9.7961 36.3753C9.7062 36.3551 9.62616 36.3045 9.56967 36.2321C9.41467 36.0662 9.38286 35.837 9.50209 35.7342C9.62131 35.6315 9.83593 35.6789 9.99093 35.8449C10.1459 36.0108 10.1817 36.24 10.0625 36.3428Z" fill="black"/>
<path d="M11.0097 37.7141C10.8627 37.8168 10.6123 37.7141 10.4732 37.5086C10.4347 37.4717 10.4041 37.4275 10.3832 37.3786C10.3623 37.3298 10.3516 37.2772 10.3516 37.2241C10.3516 37.171 10.3623 37.1184 10.3832 37.0695C10.4041 37.0206 10.4347 36.9764 10.4732 36.9396C10.6202 36.8408 10.8706 36.9396 11.0097 37.1411C11.1488 37.3426 11.1528 37.6113 11.0097 37.7141V37.7141Z" fill="black"/>
<path d="M12.2913 39.0415C12.1601 39.1877 11.8938 39.1482 11.6753 38.9506C11.4567 38.753 11.405 38.4843 11.5362 38.3421C11.6673 38.1998 11.9336 38.2393 12.1601 38.433C12.3866 38.6266 12.4304 38.8992 12.2913 39.0415V39.0415Z" fill="black"/>
<path d="M14.0923 39.8163C14.0327 40.002 13.7625 40.085 13.4922 40.006C13.222 39.9269 13.0432 39.7056 13.0948 39.516C13.1465 39.3263 13.4207 39.2394 13.6949 39.3263C13.9691 39.4132 14.144 39.6227 14.0923 39.8163Z" fill="black"/>
<path d="M16.0566 39.9504C16.0566 40.144 15.8341 40.3099 15.548 40.3139C15.2618 40.3178 15.0273 40.1598 15.0273 39.9662C15.0273 39.7725 15.2499 39.6066 15.536 39.6026C15.8222 39.5987 16.0566 39.7528 16.0566 39.9504Z" fill="black"/>
<path d="M17.8848 39.6463C17.9205 39.84 17.7218 40.0415 17.4357 40.0889C17.1495 40.1363 16.8992 40.0217 16.8634 39.8321C16.8276 39.6424 17.0343 39.4369 17.3125 39.3855C17.5907 39.3342 17.849 39.4527 17.8848 39.6463Z" fill="black"/>
</g>
<defs>
<clipPath id="clip0_1522_100">
<rect width="48" height="48" fill="white"/>
</clipPath>
</defs>
</svg>
