<svg width="48" height="48" viewBox="0 0 48 48" fill="none" xmlns="http://www.w3.org/2000/svg">
<g clip-path="url(#clip0_1522_77)">
<g clip-path="url(#clip1_1522_77)">
<path d="M8.91656 8.41599C10.4086 9.62799 10.9686 9.53599 13.7726 9.34799L40.2026 7.76199C40.7626 7.76199 40.2966 7.20199 40.1106 7.10999L35.7186 3.93599C34.8786 3.28399 33.7566 2.53599 31.6086 2.72199L6.01856 4.58999C5.08656 4.68199 4.89856 5.14999 5.27056 5.52199L8.91656 8.41599ZM10.5026 14.576V42.384C10.5026 43.878 11.2486 44.438 12.9306 44.344L41.9766 42.664C43.6586 42.572 43.8466 41.544 43.8466 40.33V12.708C43.8466 11.496 43.3806 10.842 42.3506 10.934L11.9966 12.708C10.8766 12.802 10.5026 13.362 10.5026 14.574V14.576ZM39.1766 16.066C39.3626 16.906 39.1766 17.746 38.3366 17.842L36.9366 18.122V38.65C35.7206 39.304 34.6006 39.678 33.6666 39.678C32.1706 39.678 31.7966 39.21 30.6766 37.812L21.5226 23.44V37.344L24.4186 38C24.4186 38 24.4186 39.68 22.0826 39.68L15.6386 40.052C15.4526 39.68 15.6386 38.746 16.2926 38.56L17.9726 38.094V19.708L15.6426 19.52C15.4546 18.68 15.9226 17.468 17.2286 17.374L24.1406 16.908L33.6686 31.466V18.586L31.2386 18.308C31.0526 17.28 31.7986 16.534 32.7326 16.442L39.1766 16.066ZM3.87056 2.06999L30.4906 0.109992C33.7586 -0.170008 34.6006 0.0159922 36.6546 1.50999L45.1526 7.48199C46.5526 8.50799 47.0206 8.78799 47.0206 9.90799V42.664C47.0206 44.716 46.2746 45.932 43.6606 46.116L12.7446 47.984C10.7846 48.078 9.84856 47.798 8.82056 46.49L2.56256 38.37C1.44256 36.876 0.976562 35.758 0.976562 34.45V5.33399C0.976562 3.65599 1.72456 2.25399 3.87056 2.06999V2.06999Z" fill="white"/>
</g>
</g>
<defs>
<clipPath id="clip0_1522_77">
<rect width="48" height="48" fill="white"/>
</clipPath>
<clipPath id="clip1_1522_77">
<rect width="48" height="48" fill="white"/>
</clipPath>
</defs>
</svg>
