<svg width="48" height="48" viewBox="0 0 48 48" fill="none" xmlns="http://www.w3.org/2000/svg">
<path fill-rule="evenodd" clip-rule="evenodd" d="M16.3198 0H31.6796C36.4491 0 40.3197 3.8705 40.3197 8.64006C40.3197 11.9825 38.4189 14.8832 35.64 16.3199C38.4189 17.7567 40.3197 20.6576 40.3197 23.9999C40.3197 28.7695 36.4491 32.64 31.6796 32.64C28.9665 32.64 26.5443 31.3876 24.9599 29.4298V39.3599C24.9599 44.1295 21.0894 48 16.3198 48C11.5502 48 7.67969 44.1295 7.67969 39.3599C7.67969 36.0175 9.58046 33.1167 12.3594 31.6799C9.58046 30.2432 7.67969 27.3423 7.67969 23.9999C7.67969 20.6576 9.58044 17.7567 12.3594 16.3199C9.58045 14.8832 7.67969 11.9825 7.67969 8.64006C7.67969 3.8705 11.5502 0 16.3198 0ZM9.59969 8.64006C9.59969 4.9309 12.6106 1.92 16.3198 1.92H23.0395V15.3599H16.3198L16.299 15.3599C12.5993 15.3487 9.59969 12.3422 9.59969 8.64006ZM23.0399 23.9086C23.0396 23.939 23.0395 23.9694 23.0395 23.9999C23.0395 24.0304 23.0396 24.0609 23.0399 24.0913V30.7198H16.3198C12.6106 30.72 9.59969 27.7091 9.59969 23.9999C9.59969 20.2977 12.5994 17.2911 16.2992 17.2799L16.3198 17.2799H23.0395L23.0399 23.9086ZM24.9599 24.0804V23.9195C25.003 20.2565 27.9823 17.2947 31.652 17.2799H31.6796C31.6865 17.2799 31.6933 17.2799 31.7002 17.2799C35.3999 17.2911 38.3997 20.2977 38.3997 23.9999C38.3997 27.7091 35.3888 30.72 31.6796 30.72C27.9972 30.72 25.0031 27.7526 24.9599 24.0804ZM26.2502 17.2799C25.7762 17.6635 25.3435 18.0961 24.9599 18.5701V17.2799H26.2502ZM31.7004 15.3599C31.6935 15.3599 31.6865 15.3599 31.6796 15.3599C31.6691 15.3599 31.6586 15.3599 31.6481 15.3599H24.9599V1.92H31.6796C35.3888 1.92 38.3997 4.9309 38.3997 8.64006C38.3997 12.3422 35.4001 15.3487 31.7004 15.3599ZM16.3198 32.6399C12.6106 32.6399 9.59969 35.6508 9.59969 39.3599C9.59969 43.0691 12.6106 46.08 16.3198 46.08C20.029 46.08 23.0399 43.0691 23.0399 39.3599V32.6399H16.3198Z" fill="black"/>
</svg>
