<svg width="54" height="52" viewBox="0 0 54 52" fill="none" xmlns="http://www.w3.org/2000/svg">
<path d="M26.655 0.996798C27.0265 0.217123 28.1343 0.217121 28.4745 0.996797L33.5862 12.7108C33.7776 13.1493 34.2575 13.3827 34.7275 13.2657L47.2838 10.1411C48.1195 9.93308 48.7929 10.7991 48.3897 11.5633L42.3328 23.0458C42.1061 23.4757 42.2153 23.9999 42.5925 24.2926L52.6691 32.1102C53.3398 32.6306 53.0716 33.7105 52.2287 33.8838L39.5642 36.4882C39.0901 36.5857 38.7463 37.0062 38.7466 37.4881L38.7558 50.3612C38.7564 51.218 37.7486 51.6986 37.1006 51.1505L27.3651 42.9156C27.0007 42.6074 26.4628 42.6074 26.086 42.9156L16.0208 51.1505C15.3508 51.6986 14.3623 51.218 14.3972 50.3612L14.9218 37.4881C14.9414 37.0062 14.6145 36.5857 14.1443 36.4882L1.58407 33.8838C0.748067 33.7105 0.523166 32.6306 1.21469 32.1102L11.6043 24.2926C11.9932 23.9999 12.1234 23.4757 11.9139 23.0458L6.31674 11.5633C5.94419 10.7991 6.65227 9.93308 7.47967 10.1411L19.9108 13.2657C20.3761 13.3827 20.8654 13.1493 21.0743 12.7108L26.655 0.996798Z" fill="#F4F9FF"/>
</svg>
