<svg width="48" height="48" viewBox="0 0 48 48" fill="none" xmlns="http://www.w3.org/2000/svg">
<g clip-path="url(#clip0_1522_88)">
<g clip-path="url(#clip1_1522_88)">
<path d="M24.0001 7.99993L17.6001 14.3999L20.8001 17.6L27.2001 11.1999C29.8401 8.55993 34.1601 8.55993 36.8001 11.1999C39.4401 13.8399 39.4401 18.16 36.8001 20.8L30.4001 27.2L33.6001 30.4L40.0001 24C44.4161 19.584 44.4161 12.4159 40.0001 7.99993C35.5841 3.58392 28.4161 3.58392 24.0001 7.99993ZM27.2001 30.4L20.8001 36.8C18.1601 39.44 13.84 39.44 11.2 36.8C8.56002 34.16 8.56002 29.84 11.2 27.2L17.6001 20.8L14.4 17.6L8.00002 24C3.58401 28.416 3.58401 35.584 8.00002 40C12.416 44.416 19.5841 44.416 24.0001 40L30.4001 33.6L27.2001 30.4ZM16 28.8L28.8001 16L32.0001 19.2L19.2001 32L16 28.8Z" fill="black"/>
</g>
</g>
<defs>
<clipPath id="clip0_1522_88">
<rect width="48" height="48" fill="white"/>
</clipPath>
<clipPath id="clip1_1522_88">
<rect width="48" height="48" fill="white"/>
</clipPath>
</defs>
</svg>
